<svg width="60" height="60" viewBox="0 0 60 60" fill="none" xmlns="http://www.w3.org/2000/svg">
<path fill-rule="evenodd" clip-rule="evenodd" d="M30 60C46.5685 60 60 46.5685 60 30C60 13.4315 46.5685 1.97578e-07 30 0C13.4315 -1.97578e-07 1.9758e-07 13.4315 0 30C-1.97576e-07 46.5685 13.4315 60 30 60ZM40.8281 38.0002L29.9997 27.1718L19.1713 38.0002L21.9997 40.8286L29.9997 32.8286L37.9997 40.8286L40.8281 38.0002ZM40.8281 26.0002L29.9997 15.1718L19.1713 26.0002L21.9997 28.8286L29.9997 20.8286L37.9997 28.8286L40.8281 26.0002Z" fill="white"/>
</svg>
