<svg width="24" height="24" viewBox="0 0 24 24" fill="none" xmlns="http://www.w3.org/2000/svg">
<path fill-rule="evenodd" clip-rule="evenodd" d="M0 12C0 5.37258 5.37258 0 12 0C18.6274 0 24 5.37258 24 12C24 18.6274 18.6274 24 12 24C5.37258 24 0 18.6274 0 12ZM12 5.6C12.3102 5.6 12.5924 5.7793 12.7242 6.06008L14.2734 9.36055L17.7208 9.88692C18.0172 9.93218 18.2634 10.1394 18.3586 10.4238C18.4538 10.7081 18.382 11.0218 18.1726 11.2364L15.6546 13.8172L16.2507 17.4712C16.3001 17.7736 16.1724 18.0775 15.9219 18.254C15.6715 18.4304 15.3423 18.4484 15.0741 18.3001L12 16.6008L8.9259 18.3001C8.65777 18.4484 8.32855 18.4304 8.0781 18.254C7.82765 18.0775 7.69996 17.7736 7.74929 17.4712L8.34544 13.8172L5.82742 11.2364C5.61801 11.0218 5.54621 10.7081 5.64141 10.4238C5.73662 10.1394 5.98284 9.93218 6.27927 9.88692L9.72665 9.36055L11.2758 6.06008C11.4076 5.7793 11.6898 5.6 12 5.6Z" fill="white"/>
</svg>
