<svg width="100" height="43" viewBox="0 0 100 43" fill="none" xmlns="http://www.w3.org/2000/svg">
<mask id="path-1-inside-1" fill="white">
<path fill-rule="evenodd" clip-rule="evenodd" d="M55.1962 9L50 0L44.8038 9H17C7.61116 9 0 16.6112 0 26C0 35.3888 7.61116 43 17 43H83C92.3888 43 100 35.3888 100 26C100 16.6112 92.3888 9 83 9H55.1962Z"/>
</mask>
<path fill-rule="evenodd" clip-rule="evenodd" d="M55.1962 9L50 0L44.8038 9H17C7.61116 9 0 16.6112 0 26C0 35.3888 7.61116 43 17 43H83C92.3888 43 100 35.3888 100 26C100 16.6112 92.3888 9 83 9H55.1962Z" fill="white"/>
<path d="M50 0L50.866 -0.5L50 -2L49.134 -0.5L50 0ZM55.1962 9L54.3301 9.5L54.6188 10H55.1962V9ZM44.8038 9V10H45.3812L45.6699 9.5L44.8038 9ZM49.134 0.5L54.3301 9.5L56.0622 8.5L50.866 -0.5L49.134 0.5ZM45.6699 9.5L50.866 0.5L49.134 -0.5L43.9378 8.5L45.6699 9.5ZM17 10H44.8038V8H17V10ZM1 26C1 17.1634 8.16344 10 17 10V8C7.05888 8 -1 16.0589 -1 26H1ZM17 42C8.16345 42 1 34.8366 1 26H-1C-1 35.9411 7.05888 44 17 44V42ZM83 42H17V44H83V42ZM99 26C99 34.8366 91.8366 42 83 42V44C92.9411 44 101 35.9411 101 26H99ZM83 10C91.8366 10 99 17.1634 99 26H101C101 16.0589 92.9411 8 83 8V10ZM55.1962 10H83V8H55.1962V10Z" fill="#616161" mask="url(#path-1-inside-1)"/>
</svg>
