<svg width="177" height="32" viewBox="0 0 177 32" fill="none" xmlns="http://www.w3.org/2000/svg">
<g clip-path="url(#clip0)">
<path d="M11.2137 14.8733C13.1671 13.5103 15.0309 10.7223 16.4033 8.27738L13.4948 3.81413C11.2817 0.414146 6.73189 -0.544031 3.335 1.67214C-0.0649799 3.88522 -1.02316 8.43501 1.19301 11.835L3.029 14.6508C4.37663 15.3957 8.07952 17.0555 11.2137 14.8733Z" fill="#9E61FF"/>
<path d="M34.0894 29.3078C35.4309 29.2893 36.7816 28.9029 37.987 28.1178C39.2636 27.2864 40.1939 26.1242 40.7441 24.8198L40.2712 25.6389C38.9452 27.9354 36.5621 29.246 34.0894 29.3078Z" fill="#593385"/>
<path d="M46.0264 0.986085C42.5151 -1.04154 38.024 0.160817 35.9964 3.67516L33.5701 7.87568L38.9699 16.1778L40.1289 17.9582C41.5106 20.0785 41.6589 22.6501 40.744 24.82L48.7124 11.0191C50.7431 7.50478 49.5376 3.01371 46.0264 0.986085Z" fill="#593385"/>
<path d="M40.129 17.9552L38.9699 16.1749C38.9699 16.1749 33.3662 12.5029 29.3387 17.3587C28.3713 18.524 27.4811 19.6367 26.6867 20.6536C26.2355 21.2316 25.812 21.7818 25.4257 22.2917L27.3204 25.1972C27.9386 26.4645 28.9307 27.5679 30.2444 28.3252C31.3787 28.9804 32.6151 29.2957 33.836 29.3081C33.8885 29.3081 33.9442 29.3081 33.9967 29.3081C34.0276 29.3081 34.0616 29.3081 34.0925 29.3081C36.5652 29.2463 38.9483 27.9357 40.2743 25.6392L40.7472 24.8201C41.659 22.6472 41.5138 20.0787 40.129 17.9552Z" fill="#593385"/>
<path d="M33.5701 7.87576L30.8779 3.73706H30.8563C28.6247 0.401989 24.1181 -0.525279 20.746 1.67235C19.8929 2.22871 19.1944 2.93034 18.6627 3.7247C18.23 4.37069 17.9055 5.07542 17.6984 5.81414C17.346 6.53123 16.9102 7.38122 16.4064 8.27449C15.034 10.7225 13.1702 13.5105 11.2168 14.8705C8.07951 17.0557 4.37662 15.3959 3.02899 14.651L3.36281 15.161L10.4131 25.976C12.6293 29.3729 17.1791 30.3311 20.576 28.118C21.4013 27.5802 22.0812 26.9033 22.6098 26.1398C22.6098 26.1398 23.6607 24.616 25.4256 22.2917C25.812 21.7817 26.2354 21.2346 26.6867 20.6535C27.481 19.6366 28.3712 18.5239 29.3387 17.3586C33.3661 12.5028 38.9699 16.1748 38.9699 16.1748L33.5701 7.87576Z" fill="#882BFF"/>
<path d="M100.129 4.3457C98.822 4.3457 97.7618 5.40588 97.7618 6.71333V14.4035C97.7618 17.3398 95.3725 19.726 92.4393 19.726C89.5029 19.726 87.1168 17.3367 87.1168 14.4035V6.71333C87.1168 5.40588 86.0566 4.3457 84.7491 4.3457C84.7244 4.3457 84.6997 4.34879 84.675 4.34879C84.6502 4.34879 84.6255 4.3457 84.6008 4.3457C83.2933 4.3457 82.2332 5.40588 82.2332 6.71333V14.4035C82.2332 17.3398 79.8439 19.726 76.9106 19.726C73.9774 19.726 71.585 17.3367 71.585 14.4035V6.71333C71.585 5.40588 70.5249 4.3457 69.2174 4.3457C67.91 4.3457 66.8498 5.40588 66.8498 6.71333V14.4035C66.8498 19.9485 71.3625 24.4612 76.9076 24.4612C80.0294 24.4612 82.8266 23.0301 84.6719 20.7892C86.5171 23.0301 89.3113 24.4612 92.4362 24.4612C97.9812 24.4612 102.494 19.9485 102.494 14.4035V6.71333C102.494 5.40588 101.437 4.3457 100.129 4.3457Z" fill="black"/>
<path d="M166.086 31.9999C164.779 31.9999 163.718 30.9397 163.718 29.6323C163.718 28.3248 164.779 27.2647 166.086 27.2647C168.574 27.2647 170.246 26.4919 171.195 24.9032C171.832 23.84 171.965 22.7118 171.993 22.3409C170.45 23.3052 168.627 23.8647 166.676 23.8647C161.131 23.8647 156.619 19.352 156.619 13.8069V6.71333C156.619 5.40588 157.679 4.3457 158.986 4.3457C160.294 4.3457 161.354 5.40588 161.354 6.71333V13.8131C161.354 16.7495 163.743 19.1356 166.676 19.1356C169.61 19.1356 171.999 16.7464 171.999 13.8131V6.71333C171.999 5.40588 173.059 4.3457 174.366 4.3457C175.674 4.3457 176.734 5.40588 176.734 6.71333V22.242C176.734 22.4954 176.697 24.7765 175.396 27.0947C174.144 29.3325 171.511 31.9999 166.086 31.9999Z" fill="black"/>
<path d="M141.538 24.755C141.526 24.755 141.516 24.755 141.504 24.755C140.639 24.7426 139.85 24.2604 139.446 23.4939L131.165 7.81688C130.556 6.66088 130.995 5.2298 132.151 4.62089C133.307 4.0089 134.738 4.45089 135.347 5.60689L141.609 17.4574L148.35 5.54507C148.993 4.40762 150.437 4.00581 151.574 4.6518C152.712 5.29471 153.11 6.73815 152.468 7.8756L143.594 23.5526C143.176 24.2975 142.388 24.755 141.538 24.755Z" fill="black"/>
<path d="M124.677 24.458C123.37 24.458 122.31 23.3978 122.31 22.0904V14.1066C122.31 11.0064 119.787 8.48736 116.69 8.48736C113.59 8.48736 111.071 11.0095 111.071 14.1066C111.071 17.2037 113.593 19.7258 116.69 19.7258C117.998 19.7258 119.058 20.786 119.058 22.0935C119.058 23.4009 117.998 24.4611 116.69 24.4611C110.982 24.4611 106.339 19.8186 106.339 14.1097C106.339 8.40082 110.982 3.7583 116.69 3.7583C122.399 3.7583 127.042 8.40082 127.042 14.1097V22.0966C127.045 23.4009 125.985 24.458 124.677 24.458Z" fill="black"/>
</g>
<defs>
<clipPath id="clip0">
<rect width="176.734" height="32" fill="white"/>
</clipPath>
</defs>
</svg>
