<svg width="209" height="250" viewBox="0 0 209 250" fill="none" xmlns="http://www.w3.org/2000/svg">
<path d="M167.995 106.442L131.495 157.464L143.546 170.069C143.546 170.069 178.333 156.494 196.101 137.762C209.306 123.841 206.743 106.198 206.743 106.198L167.995 106.442Z" fill="white"/>
<path d="M206.478 104.394C205.481 104.54 204.787 105.467 204.933 106.463C204.955 106.631 207.225 123.386 194.773 136.511C185.779 145.996 172.173 154.143 162.349 159.305C153.89 163.752 146.7 166.807 144.012 167.912L133.858 157.295L169.48 107.503C170.065 106.685 169.875 105.542 169.057 104.957C168.239 104.372 167.095 104.562 166.51 105.38L130.011 156.402C129.501 157.117 129.572 158.092 130.173 158.725L142.224 171.331C142.576 171.699 143.053 171.894 143.546 171.894C143.768 171.894 143.996 171.851 144.207 171.769C144.294 171.737 153.126 168.27 164.007 162.555C178.675 154.852 189.913 146.933 197.423 139.019C204.565 131.489 207.209 122.92 208.174 117.059C209.219 110.705 208.575 106.133 208.547 105.938C208.407 104.941 207.48 104.253 206.478 104.394Z" fill="#9368F5"/>
<path d="M181.715 76.7517L111.317 81.8653L106.207 156.174L124.923 165.258L167.529 151.061L189.328 137.193L199.9 110.445L188.401 86.5834L181.715 76.7517Z" fill="white"/>
<path d="M168.736 23.282V86.9738L188.4 109.974V23.282" fill="white"/>
<path d="M178.571 11.6301C172.145 11.6301 166.916 16.8574 166.916 23.2819V86.9736C166.916 87.9812 167.734 88.7991 168.742 88.7991C169.75 88.7991 170.568 87.9812 170.568 86.9736V23.2819C170.568 18.8671 174.161 15.2757 178.577 15.2757C182.993 15.2757 186.585 18.8671 186.585 23.2819V109.974C186.585 110.981 187.404 111.799 188.411 111.799C189.419 111.799 190.238 110.981 190.238 109.974V23.2819C190.227 16.8574 184.998 11.6301 178.571 11.6301Z" fill="#9368F5"/>
<path d="M139.244 13.4556C133.814 13.4556 129.409 17.8541 129.409 23.2872V101.133H149.073V23.2818C149.073 17.8541 144.673 13.4556 139.244 13.4556Z" fill="white"/>
<path d="M139.244 11.6301C132.817 11.6301 127.583 16.8574 127.583 23.2819V101.128C127.583 102.135 128.401 102.953 129.409 102.953C130.417 102.953 131.235 102.135 131.235 101.128V23.2819C131.235 18.8671 134.828 15.2757 139.244 15.2757C143.66 15.2757 147.252 18.8671 147.252 23.2819V101.128C147.252 102.135 148.071 102.953 149.078 102.953C150.086 102.953 150.905 102.135 150.905 101.128V23.2819C150.899 16.8574 145.67 11.6301 139.244 11.6301Z" fill="#9368F5"/>
<path d="M119.58 40.9031C114.15 40.9031 109.745 45.3016 109.745 50.7347V128.651L129.409 101.128V50.7293C129.409 45.3016 125.009 40.9031 119.58 40.9031Z" fill="white"/>
<path d="M119.574 39.0776C113.148 39.0776 107.919 44.3049 107.919 50.7294V128.651C107.919 129.659 108.737 130.477 109.745 130.477C110.753 130.477 111.571 129.659 111.571 128.651V50.7294C111.571 46.3146 115.164 42.7232 119.58 42.7232C123.996 42.7232 127.588 46.3146 127.588 50.7294V101.128C127.588 102.136 128.407 102.954 129.414 102.954C130.422 102.954 131.24 102.136 131.24 101.128V50.7294C131.235 44.3049 126.006 39.0776 119.574 39.0776Z" fill="#9368F5"/>
<path d="M158.908 1.82544C153.479 1.82544 149.073 6.22395 149.073 11.6571V101.133H168.737V11.6517C168.737 6.22395 164.337 1.82544 158.908 1.82544Z" fill="white"/>
<path d="M158.908 0C152.482 0 147.253 5.2273 147.253 11.6517V101.128C147.253 102.135 148.071 102.953 149.079 102.953C150.087 102.953 150.905 102.135 150.905 101.128V11.6517C150.905 7.23696 154.498 3.64557 158.914 3.64557C163.33 3.64557 166.922 7.23696 166.922 11.6517V101.128C166.922 102.135 167.741 102.953 168.748 102.953C169.756 102.953 170.574 102.135 170.574 101.128V11.6517C170.564 5.2273 165.335 0 158.908 0Z" fill="#9368F5"/>
<path d="M197.575 66.1726C192.509 66.1726 188.407 70.2786 188.407 75.338V109.974H206.749V75.338C206.744 70.2786 202.636 66.1726 197.575 66.1726Z" fill="white"/>
<path d="M197.575 64.3472C191.512 64.3472 186.581 69.2765 186.581 75.338V109.974C186.581 110.981 187.399 111.799 188.407 111.799C189.415 111.799 190.233 110.981 190.233 109.974V75.338C190.233 71.2916 193.528 67.9981 197.575 67.9981C201.623 67.9981 204.917 71.2916 204.917 75.338V109.974C204.917 110.981 205.736 111.799 206.744 111.799C207.751 111.799 208.57 110.981 208.57 109.974V75.338C208.57 69.282 203.633 64.3472 197.575 64.3472Z" fill="#9368F5"/>
<path d="M1.82324 184.688L54.172 252.687L152.736 176.482L100.387 108.484L1.82324 184.688Z" fill="#D4C0F7"/>
<path d="M101.834 107.368C101.536 106.983 101.103 106.734 100.621 106.669C100.138 106.604 99.656 106.74 99.2713 107.038L0.707566 183.242C-0.0889636 183.86 -0.235265 185.003 0.382452 185.805C1.00017 186.601 2.14349 186.747 2.94543 186.13L100.057 111.046L150.179 176.152L53.0564 251.241C52.2598 251.858 52.1135 253.001 52.7312 253.803C53.0889 254.269 53.6307 254.512 54.178 254.512C54.5681 254.512 54.9637 254.388 55.2942 254.133L153.858 177.928C154.655 177.311 154.801 176.168 154.189 175.372L101.834 107.368Z" fill="#9368F5"/>
</svg>
