<svg width="179" height="232" viewBox="0 0 179 232" fill="none" xmlns="http://www.w3.org/2000/svg">
<path d="M93.597 47.1755C90.9094 46.9155 88.108 46.9155 85.4204 47.1755C84.5643 47.2567 83.9141 47.9772 83.9141 48.833V52.5707C83.9141 55.6529 86.4228 58.1609 89.506 58.1609C92.5892 58.1609 95.098 55.6529 95.098 52.5707V48.833C95.1034 47.9772 94.4532 47.2621 93.597 47.1755ZM91.771 52.5707C91.771 53.8166 90.7577 54.8295 89.5114 54.8295C88.2652 54.8295 87.2519 53.8166 87.2519 52.5707V50.3769C88.7528 50.2902 90.27 50.2902 91.771 50.3769V52.5707Z" fill="#CBEBF6"/>
<path d="M2.02366 106.203C2.02366 106.203 -0.539335 123.846 12.6657 137.767C30.4332 156.499 65.2204 170.074 65.2204 170.074L77.2713 157.469L40.7718 106.447L2.02366 106.203Z" fill="white"/>
<path d="M42.2563 105.38C41.6711 104.562 40.5278 104.372 39.7096 104.957C38.8914 105.542 38.7017 106.685 39.2869 107.503L74.9086 157.295L64.7542 167.912C62.072 166.813 54.9087 163.763 46.4557 159.321C36.6156 154.153 22.9987 145.995 13.9931 136.505C8.8021 131.034 5.51302 124.333 4.21799 116.593C3.24265 110.764 3.82786 106.501 3.83327 106.458C3.97958 105.461 3.286 104.535 2.28898 104.388C1.29196 104.242 0.365384 104.935 0.219083 105.932C0.19199 106.122 -0.447399 110.694 0.592966 117.053C2.33774 127.676 7.4041 134.858 11.3434 139.013C18.8481 146.927 30.0916 154.847 44.7597 162.549C55.6402 168.264 64.4725 171.731 64.5591 171.764C64.7759 171.85 64.998 171.888 65.2202 171.888C65.7079 171.888 66.1901 171.693 66.5423 171.325L78.5932 158.72C79.2001 158.086 79.2705 157.111 78.7558 156.396L42.2563 105.38Z" fill="#7B3CF4"/>
<path d="M27.0465 76.7517L20.36 86.5834L8.86719 110.445L19.4334 137.193L41.2323 151.061L83.8439 165.258L102.56 156.174L97.4445 81.8653L27.0465 76.7517Z" fill="white"/>
<path d="M30.1941 13.4556C24.7647 13.4556 20.3594 17.8541 20.3594 23.2872V109.979L40.0233 86.979V23.2818C40.0233 17.8541 35.6235 13.4556 30.1941 13.4556Z" fill="white"/>
<path d="M30.1944 11.6301C23.768 11.6301 18.5391 16.8574 18.5391 23.2819V109.974C18.5391 110.981 19.3573 111.799 20.3651 111.799C21.373 111.799 22.1912 110.981 22.1912 109.974V23.2819C22.1912 18.8671 25.7837 15.2757 30.1998 15.2757C34.616 15.2757 38.2085 18.8671 38.2085 23.2819V86.9736C38.2085 87.9812 39.0267 88.7991 40.0345 88.7991C41.0424 88.7991 41.8606 87.9812 41.8606 86.9736V23.2819C41.8497 16.8574 36.6208 11.6301 30.1944 11.6301Z" fill="#7B3CF4"/>
<path d="M69.5222 13.4556C64.0928 13.4556 59.6875 17.8541 59.6875 23.2872V101.133H79.3514V23.2818C79.3569 17.8541 74.9516 13.4556 69.5222 13.4556Z" fill="white"/>
<path d="M69.5225 11.6301C63.0961 11.6301 57.8672 16.8574 57.8672 23.2819V101.128C57.8672 102.136 58.6854 102.953 59.6932 102.953C60.7011 102.953 61.5193 102.136 61.5193 101.128V23.2819C61.5193 18.8671 65.1118 15.2757 69.5279 15.2757C73.944 15.2757 77.5366 18.8671 77.5366 23.2819V101.128C77.5366 102.136 78.3548 102.953 79.3626 102.953C80.3705 102.953 81.1887 102.136 81.1887 101.128V23.2819C81.1832 16.8574 75.9489 11.6301 69.5225 11.6301Z" fill="#7B3CF4"/>
<path d="M89.1863 40.9031C83.7569 40.9031 79.3516 45.3016 79.3516 50.7347V101.133L99.0156 128.657V50.7293C99.021 45.3016 94.6157 40.9031 89.1863 40.9031Z" fill="white"/>
<path d="M89.1866 39.0776C82.7602 39.0776 77.5312 44.3049 77.5312 50.7294V101.128C77.5312 102.136 78.3495 102.954 79.3573 102.954C80.3652 102.954 81.1834 102.136 81.1834 101.128V50.7294C81.1834 46.3146 84.7759 42.7232 89.192 42.7232C93.6081 42.7232 97.2007 46.3146 97.2007 50.7294V128.651C97.2007 129.659 98.0189 130.477 99.0267 130.477C100.035 130.477 100.853 129.659 100.853 128.651V50.7294C100.847 44.3049 95.6184 39.0776 89.1866 39.0776Z" fill="#7B3CF4"/>
<path d="M49.8581 1.82544C44.4287 1.82544 40.0234 6.22396 40.0234 11.6571V101.133H59.6874V11.6517C59.6928 6.22395 55.2875 1.82544 49.8581 1.82544Z" fill="white"/>
<path d="M49.8585 0C43.432 0 38.2031 5.2273 38.2031 11.6517V101.128C38.2031 102.135 39.0213 102.953 40.0292 102.953C41.037 102.953 41.8552 102.135 41.8552 101.128V11.6517C41.8552 7.23696 45.4477 3.64557 49.8639 3.64557C54.28 3.64557 57.8725 7.23696 57.8725 11.6517V101.128C57.8725 102.135 58.6907 102.953 59.6986 102.953C60.7064 102.953 61.5246 102.135 61.5246 101.128V11.6517C61.5192 5.2273 56.2849 0 49.8585 0Z" fill="#7B3CF4"/>
<path d="M11.1917 66.1726C6.12529 66.1726 2.02344 70.2786 2.02344 75.338V109.974H20.3653V75.338C20.3599 70.2786 16.258 66.1726 11.1917 66.1726Z" fill="white"/>
<path d="M11.1915 64.3472C5.12814 64.3472 0.197266 69.2765 0.197266 75.338V109.974C0.197266 110.981 1.01546 111.799 2.02332 111.799C3.03117 111.799 3.84937 110.981 3.84937 109.974V75.338C3.84937 71.2916 7.14384 67.9982 11.1915 67.9982C15.2392 67.9982 18.5337 71.2916 18.5337 75.338V109.974C18.5337 110.981 19.3519 111.799 20.3597 111.799C21.3676 111.799 22.1858 110.981 22.1858 109.974V75.338C22.1858 69.282 17.2549 64.3472 11.1915 64.3472Z" fill="#2A68A9"/>
<path d="M11.1921 66.1726C6.22327 66.1726 2.18102 70.1215 2.0293 75.0509C2.25146 70.1811 8.03848 67.7598 8.03848 67.7598C13.1048 67.7598 14.194 70.4899 14.8984 77.028L20.3603 109.974V75.338C20.3603 70.2786 16.2584 66.1726 11.1921 66.1726Z" fill="#E3F2F7"/>
<path d="M11.1915 64.3472C5.12814 64.3472 0.197266 69.2765 0.197266 75.338V109.974C0.197266 110.981 1.01546 111.799 2.02332 111.799C3.03117 111.799 3.84937 110.981 3.84937 109.974V75.338C3.84937 71.2916 7.14384 67.9982 11.1915 67.9982C15.2392 67.9982 18.5337 71.2916 18.5337 75.338V109.974C18.5337 110.981 19.3519 111.799 20.3597 111.799C21.3676 111.799 22.1858 110.981 22.1858 109.974V75.338C22.1858 69.282 17.2549 64.3472 11.1915 64.3472Z" fill="#7B3CF4"/>
<path d="M50.9961 161.585L65.4962 168.53L97.2978 138.19L97.1623 105.618L50.9961 161.585Z" fill="#E8DEFB"/>
<path d="M34.2426 19.8474C31.555 19.5873 28.7536 19.5873 26.0659 19.8474C25.2098 19.9286 24.5596 20.649 24.5596 21.5049V25.2426C24.5596 28.3248 27.0684 30.8328 30.1516 30.8328C33.2347 30.8328 35.7435 28.3248 35.7435 25.2426V21.5049C35.7489 20.649 35.0987 19.9286 34.2426 19.8474ZM32.4165 25.2426C32.4165 26.4885 31.4032 27.5014 30.157 27.5014C28.9107 27.5014 27.8974 26.4885 27.8974 25.2426V23.0487C29.3984 22.9621 30.9156 22.9621 32.4165 23.0487V25.2426Z" fill="#D4C0F7"/>
<path d="M53.8793 6.71137C51.1917 6.45135 48.3903 6.45135 45.7026 6.71137C44.8465 6.79262 44.1963 7.51307 44.1963 8.36893V12.1066C44.1963 15.1888 46.7051 17.6968 49.7883 17.6968C52.8714 17.6968 55.3802 15.1888 55.3802 12.1066V8.36893C55.3802 7.51307 54.73 6.79804 53.8793 6.71137ZM52.0478 12.1066C52.0478 13.3525 51.0345 14.3654 49.7883 14.3654C48.542 14.3654 47.5287 13.3525 47.5287 12.1066V9.91275C49.0296 9.82608 50.5468 9.82608 52.0478 9.91275V12.1066Z" fill="#D4C0F7"/>
<path d="M73.6625 19.2463C70.9749 18.9863 68.1735 18.9863 65.4859 19.2463C64.6297 19.3275 63.9795 20.048 63.9795 20.9038V24.6415C63.9795 27.7237 66.4883 30.2317 69.5715 30.2317C72.6546 30.2317 75.1634 27.7237 75.1634 24.6415V20.9038C75.1688 20.0426 74.5186 19.3275 73.6625 19.2463ZM71.8364 24.6361C71.8364 25.882 70.8231 26.8949 69.5769 26.8949C68.3306 26.8949 67.3173 25.882 67.3173 24.6361V22.4422C68.8183 22.3556 70.3355 22.3556 71.8364 22.4422V24.6361Z" fill="#D4C0F7"/>
<path d="M93.597 47.1755C90.9094 46.9155 88.108 46.9155 85.4204 47.1755C84.5643 47.2567 83.9141 47.9772 83.9141 48.833V52.5707C83.9141 55.6529 86.4228 58.1609 89.506 58.1609C92.5892 58.1609 95.098 55.6529 95.098 52.5707V48.833C95.1034 47.9772 94.4532 47.2621 93.597 47.1755ZM91.771 52.5707C91.771 53.8166 90.7577 54.8295 89.5114 54.8295C88.2652 54.8295 87.2519 53.8166 87.2519 52.5707V50.3769C88.7528 50.2902 90.27 50.2902 91.771 50.3769V52.5707Z" fill="#D4C0F7"/>
<path d="M15.0599 71.6381C12.3723 71.3781 9.57092 71.3781 6.88331 71.6381C6.02718 71.7194 5.37695 72.4398 5.37695 73.2957V77.0333C5.37695 80.1156 7.88574 82.6236 10.9689 82.6236C14.0521 82.6236 16.5609 80.1156 16.5609 77.0333V73.2957C16.5663 72.4344 15.9161 71.7194 15.0599 71.6381ZM13.2339 77.0333C13.2339 78.2792 12.2206 79.2922 10.9743 79.2922C9.72805 79.2922 8.71477 78.2792 8.71477 77.0333V74.8395C10.2157 74.7528 11.7329 74.7528 13.2339 74.8395V77.0333Z" fill="#D4C0F7"/>
<path d="M34.5351 62.9819H26.6836C25.7624 62.9819 25.0146 63.7295 25.0146 64.6503C25.0146 65.5712 25.7624 66.3187 26.6836 66.3187H34.5351C35.4562 66.3187 36.204 65.5712 36.204 64.6503C36.204 63.7295 35.4562 62.9819 34.5351 62.9819Z" fill="#D4C0F7"/>
<path d="M53.8681 62.9819H46.0166C45.0954 62.9819 44.3477 63.7295 44.3477 64.6503C44.3477 65.5712 45.0954 66.3187 46.0166 66.3187H53.8681C54.7892 66.3187 55.537 65.5712 55.537 64.6503C55.537 63.7295 54.7892 62.9819 53.8681 62.9819Z" fill="#D4C0F7"/>
<path d="M73.0497 62.9819H65.1982C64.2771 62.9819 63.5293 63.7295 63.5293 64.6503C63.5293 65.5712 64.2771 66.3187 65.1982 66.3187H73.0497C73.9709 66.3187 74.7186 65.5712 74.7186 64.6503C74.7186 63.7295 73.9709 62.9819 73.0497 62.9819Z" fill="#D4C0F7"/>
<path d="M93.1367 73.7019H85.2851C84.364 73.7019 83.6162 74.4494 83.6162 75.3703C83.6162 76.2912 84.364 77.0387 85.2851 77.0387H93.1367C94.0578 77.0387 94.8056 76.2912 94.8056 75.3703C94.8056 74.4494 94.0578 73.7019 93.1367 73.7019Z" fill="#D4C0F7"/>
<path d="M108.379 108.472L56.0312 176.472L124.816 229.391L177.164 161.392L108.379 108.472Z" fill="#D4C0F7"/>
<path d="M178.273 159.955L109.49 107.032C109.105 106.74 108.623 106.604 108.141 106.669C107.659 106.734 107.225 106.984 106.927 107.368L54.5783 175.366C54.2857 175.751 54.1502 176.233 54.2152 176.715C54.2802 177.197 54.5295 177.631 54.9142 177.928L123.698 230.851C124.028 231.106 124.424 231.231 124.808 231.231C125.356 231.231 125.898 230.987 126.255 230.521C126.873 229.725 126.721 228.576 125.919 227.959L58.588 176.146L108.71 111.041L176.046 162.848C176.848 163.465 177.992 163.314 178.609 162.512C179.222 161.716 179.07 160.573 178.273 159.955Z" fill="#7B3CF4"/>
</svg>
