<svg width="17" height="18" viewBox="0 0 17 18" fill="none" xmlns="http://www.w3.org/2000/svg">
<path d="M13.8376 1.4736C12.3963 2.9145 10.4836 3.70536 8.44619 3.70536C6.40881 3.70536 4.49603 2.9145 3.05469 1.4736C2.40447 0.823577 1.34786 0.823577 0.697632 1.4736C0.047404 2.12363 0.047404 3.17992 0.697632 3.82995C2.76752 5.8992 5.52016 7.03674 8.44619 7.03674C11.3722 7.03674 14.1248 5.8992 16.1947 3.82995C16.845 3.17992 16.845 2.12363 16.1947 1.4736C15.5445 0.823577 14.4879 0.823577 13.8376 1.4736Z" fill="#D4C0F7"/>
<path d="M16.1948 1.4736C15.5445 0.823577 14.4879 0.823577 13.8377 1.4736C11.7678 3.54286 10.6299 6.29463 10.6299 9.21975C10.6299 12.1449 11.7678 14.8967 13.8377 16.9659C14.1628 17.2909 14.5908 17.4534 15.0189 17.4534C15.447 17.4534 15.8697 17.2909 16.2002 16.9659C16.8504 16.3159 16.8504 15.2596 16.2002 14.6096C14.7589 13.1687 13.9677 11.2565 13.9677 9.21975C13.9677 7.183 14.7589 5.27084 16.2002 3.82995C16.845 3.17992 16.845 2.12905 16.1948 1.4736Z" fill="#D4C0F7"/>
<path d="M0.697631 1.4736C0.0474042 2.12363 0.0474042 3.17992 0.697631 3.82995C3.67242 6.80382 3.67242 11.6357 0.697631 14.6096C0.0474042 15.2596 0.0474042 16.3159 0.697631 16.9659C1.02274 17.2909 1.45081 17.4534 1.87887 17.4534C2.30694 17.4534 2.72958 17.2909 3.06011 16.9659C7.32994 12.6974 7.32994 5.74753 3.06011 1.4736C2.40447 0.823577 1.34786 0.823577 0.697631 1.4736Z" fill="#D4C0F7"/>
<path d="M8.44616 11.4031C5.52015 11.4031 2.76752 12.5406 0.69763 14.6099C0.0474045 15.2599 0.0474045 16.3162 0.69763 16.9662C1.34786 17.6163 2.40446 17.6163 3.05469 16.9662C4.49602 15.5253 6.40879 14.7345 8.44616 14.7345C10.4835 14.7345 12.3963 15.5253 13.8376 16.9662C14.1627 17.2912 14.5908 17.4538 15.0188 17.4538C15.4469 17.4538 15.8696 17.2912 16.2001 16.9662C16.8503 16.3162 16.8503 15.2599 16.2001 14.6099C14.1248 12.5406 11.3722 11.4031 8.44616 11.4031Z" fill="#D4C0F7"/>
</svg>
