<svg width="16" height="17" viewBox="0 0 16 17" fill="none" xmlns="http://www.w3.org/2000/svg">
<path d="M8.2703 0.71167C7.34914 0.71167 6.60139 1.45919 6.60139 2.38006C6.60139 4.79599 4.63445 6.76232 2.21776 6.76232C1.2966 6.76232 0.548828 7.50985 0.548828 8.43072C0.548828 9.35159 1.2966 10.0991 2.21776 10.0991C6.47134 10.0991 9.93381 6.63773 9.93381 2.38548C9.93923 1.4592 9.19146 0.71167 8.2703 0.71167Z" fill="#D4C0F7"/>
<path d="M14.3231 6.76233C11.9064 6.76233 9.93944 4.79599 9.93944 2.38006C9.93944 1.45919 9.19166 0.71167 8.27049 0.71167C7.34933 0.71167 6.60156 1.45919 6.60156 2.38006C6.60156 6.63231 10.0641 10.0937 14.3177 10.0937C15.2389 10.0937 15.9866 9.34617 15.9866 8.4253C15.992 7.50443 15.2442 6.76233 14.3231 6.76233Z" fill="#D4C0F7"/>
<path d="M2.22361 6.76245C1.30246 6.76245 0.554688 7.50998 0.554688 8.43085C0.554688 9.35172 1.30246 10.0992 2.22361 10.0992C4.64029 10.0992 6.60723 12.0656 6.60723 14.4815C6.60723 15.4024 7.35499 16.1499 8.27614 16.1499C9.1973 16.1499 9.94507 15.4024 9.94507 14.4815C9.93965 10.2238 6.47719 6.76245 2.22361 6.76245Z" fill="#D4C0F7"/>
<path d="M14.3234 6.76245C10.0698 6.76245 6.60742 10.2238 6.60742 14.4761C6.60742 15.397 7.35517 16.1445 8.27632 16.1445C9.19748 16.1445 9.94524 15.397 9.94524 14.4761C9.94524 12.0602 11.9122 10.0938 14.3288 10.0938C15.25 10.0938 15.9977 9.34631 15.9977 8.42543C15.9923 7.50456 15.2446 6.76245 14.3234 6.76245Z" fill="#D4C0F7"/>
</svg>
