<svg width="10" height="10" viewBox="0 0 10 10" fill="none" xmlns="http://www.w3.org/2000/svg">
<path d="M6.83452 0.550754C6.31976 1.06536 5.63701 1.34704 4.91092 1.34704C4.18483 1.34704 3.5021 1.06536 2.98733 0.550754C2.3371 -0.0992749 1.28048 -0.0992749 0.63025 0.550754C-0.0199791 1.20078 -0.0199791 2.25708 0.63025 2.90711C1.77357 4.05008 3.29618 4.67844 4.91092 4.67844C6.52565 4.67844 8.04829 4.05008 9.1916 2.90711C9.84183 2.25708 9.84183 1.20078 9.1916 0.550754C8.54138 -0.0992749 7.48475 -0.0992749 6.83452 0.550754Z" fill="#D4C0F7"/>
<path d="M9.19143 0.550753C8.54121 -0.0992744 7.48459 -0.0992744 6.83437 0.550753C5.69106 1.69372 5.0625 3.21586 5.0625 4.8301C5.0625 6.44433 5.69106 7.96647 6.83437 9.10944C7.15948 9.43445 7.58754 9.59695 8.01561 9.59695C8.44367 9.59695 8.86631 9.43445 9.19684 9.10944C9.84707 8.45941 9.84707 7.40311 9.19684 6.75309C8.68208 6.23848 8.40032 5.55596 8.40032 4.8301C8.40032 4.10423 8.68208 3.42171 9.19684 2.9071C9.84165 2.25708 9.84166 1.20078 9.19143 0.550753Z" fill="#D4C0F7"/>
<path d="M0.630252 0.550753C-0.0199797 1.20078 -0.0199797 2.25708 0.630252 2.9071C1.6923 3.96882 1.6923 5.69137 0.630252 6.75309C-0.0199797 7.40311 -0.0199797 8.45941 0.630252 9.10944C0.955367 9.43445 1.38343 9.59695 1.8115 9.59695C2.23957 9.59695 2.66223 9.43445 2.99277 9.10944C5.35528 6.74767 5.35528 2.9071 2.99277 0.550753C2.3317 -0.0992744 1.28048 -0.0992744 0.630252 0.550753Z" fill="#D4C0F7"/>
<path d="M0.63025 6.75302C-0.0199792 7.40305 -0.0199792 8.45936 0.63025 9.10939C0.955365 9.4344 1.38343 9.59691 1.8115 9.59691C2.23956 9.59691 2.66223 9.4344 2.99276 9.10939C4.0548 8.04767 5.77789 8.04767 6.83994 9.10939C7.49016 9.75942 8.54679 9.75942 9.19702 9.10939C9.84725 8.45936 9.84725 7.40305 9.19702 6.75302C6.8291 4.39125 2.98733 4.39125 0.63025 6.75302Z" fill="#D4C0F7"/>
</svg>
