<svg width="55" height="55" viewBox="0 0 55 55" fill="none" xmlns="http://www.w3.org/2000/svg">
<path d="M4.58337 34.2809V20.7165C4.58337 19.4011 5.61004 18.3332 6.87504 18.3332H15.093C15.3962 18.3321 15.6961 18.2696 15.9746 18.1495C16.253 18.0294 16.5043 17.8541 16.7132 17.6342L23.5882 9.87008C25.0319 8.36674 27.5 9.43237 27.5 11.5567V43.443C27.5 45.5834 25.0021 46.6399 23.5675 45.1067L16.7155 37.3861C16.506 37.16 16.2522 36.9794 15.9699 36.8556C15.6876 36.7318 15.3829 36.6674 15.0746 36.6665H6.87504C5.61004 36.6665 4.58337 35.5986 4.58337 34.2809Z" stroke="white" stroke-width="3" stroke-linecap="round" stroke-linejoin="round"/>
<path d="M36.6667 19.479C39.7215 23.5536 39.7215 31.4461 36.6667 35.5207" stroke="white" stroke-width="3" stroke-linecap="round" stroke-linejoin="round"/>
<path d="M43.5417 11.4585C52.6809 20.1852 52.7359 34.8725 43.5417 43.5418" stroke="white" stroke-width="3" stroke-linecap="round" stroke-linejoin="round"/>
</svg>
