<svg width="50" height="30" viewBox="0 0 50 30" fill="none" xmlns="http://www.w3.org/2000/svg">
<path d="M11.2137 14.8733C13.1671 13.5103 15.0309 10.7223 16.4033 8.27738L13.4948 3.81413C11.2817 0.414146 6.73189 -0.544031 3.335 1.67214C-0.0649799 3.88522 -1.02316 8.43501 1.19301 11.835L3.029 14.6508C4.37663 15.3957 8.07952 17.0555 11.2137 14.8733Z" fill="#9E61FF"/>
<path d="M34.0894 29.3078C35.4309 29.2893 36.7816 28.9029 37.987 28.1178C39.2636 27.2864 40.1939 26.1242 40.7441 24.8198L40.2712 25.6389C38.9452 27.9354 36.5621 29.246 34.0894 29.3078Z" fill="#593385"/>
<path d="M46.0264 0.986085C42.5151 -1.04154 38.024 0.160817 35.9964 3.67516L33.5701 7.87568L38.9699 16.1778L40.1289 17.9582C41.5106 20.0785 41.6589 22.6501 40.744 24.82L48.7124 11.0191C50.7431 7.50478 49.5376 3.01371 46.0264 0.986085Z" fill="#593385"/>
<path d="M40.129 17.9552L38.9699 16.1749C38.9699 16.1749 33.3662 12.5029 29.3387 17.3587C28.3713 18.524 27.4811 19.6367 26.6867 20.6536C26.2355 21.2316 25.812 21.7818 25.4257 22.2917L27.3204 25.1972C27.9386 26.4645 28.9307 27.5679 30.2444 28.3252C31.3787 28.9804 32.6151 29.2957 33.836 29.3081C33.8885 29.3081 33.9442 29.3081 33.9967 29.3081C34.0276 29.3081 34.0616 29.3081 34.0925 29.3081C36.5652 29.2463 38.9483 27.9357 40.2743 25.6392L40.7472 24.8201C41.659 22.6472 41.5138 20.0787 40.129 17.9552Z" fill="#593385"/>
<path d="M33.5701 7.87576L30.8779 3.73706H30.8563C28.6247 0.401989 24.1181 -0.525279 20.746 1.67235C19.8929 2.22871 19.1944 2.93034 18.6627 3.7247C18.23 4.37069 17.9055 5.07542 17.6984 5.81414C17.346 6.53123 16.9102 7.38122 16.4064 8.27449C15.034 10.7225 13.1702 13.5105 11.2168 14.8705C8.07951 17.0557 4.37662 15.3959 3.02899 14.651L3.36281 15.161L10.4131 25.976C12.6293 29.3729 17.1791 30.3311 20.576 28.118C21.4013 27.5802 22.0812 26.9033 22.6098 26.1398C22.6098 26.1398 23.6607 24.616 25.4256 22.2917C25.812 21.7817 26.2354 21.2346 26.6867 20.6535C27.481 19.6366 28.3712 18.5239 29.3387 17.3586C33.3661 12.5028 38.9699 16.1748 38.9699 16.1748L33.5701 7.87576Z" fill="#882BFF"/>
</svg>
