<svg width="32" height="32" viewBox="0 0 32 32" fill="none" xmlns="http://www.w3.org/2000/svg">
<path d="M13.2635 25.3333L12.5546 24.6281L11.853 25.3333L12.5546 26.0386L13.2635 25.3333ZM17.86 19.2948L12.5546 24.6281L13.9725 26.0386L19.2779 20.7052L17.86 19.2948ZM12.5546 26.0386L17.86 31.3719L19.2779 29.9614L13.9725 24.6281L12.5546 26.0386Z" fill="white"/>
<path d="M7.87563 20.667C6.82374 18.8355 6.4218 16.6991 6.73564 14.608C7.04949 12.5168 8.06052 10.5947 9.6031 9.15671C11.1457 7.71869 13.1284 6.84994 15.2263 6.6928C17.3243 6.53565 19.4131 7.09941 21.1507 8.29174C22.8882 9.48406 24.1715 11.2343 24.7901 13.2556C25.4088 15.2769 25.3263 17.4495 24.556 19.4175C23.7857 21.3855 22.3735 23.0322 20.5505 24.0878C18.7275 25.1435 16.602 25.5454 14.5221 25.2278" stroke="white" stroke-width="2" stroke-linecap="round"/>
</svg>
