<svg width="37" height="32" viewBox="0 0 37 32" fill="none" xmlns="http://www.w3.org/2000/svg">
<path d="M12.7143 7.94126L13.473 8.59275V8.59275L12.7143 7.94126ZM21.9331 6.02052L21.5299 6.93562L21.9331 6.02052ZM24.5523 7.94126L23.7936 8.59275V8.59275L24.5523 7.94126ZM10.4332 11.9776L10.2245 10.9997L10.4332 11.9776ZM11.1338 11.4159L10.2245 10.9997L11.1338 11.4159ZM12.3718 21.0401L13.0789 21.7472L12.3718 21.0401ZM24.8948 21.0401L25.6019 20.333L24.8948 21.0401ZM26.8333 11.9776L27.0421 10.9997L26.8333 11.9776ZM26.1328 11.4159L27.0421 10.9997L26.1328 11.4159ZM27.4051 12.9997H27.5626V10.9997H27.4051V12.9997ZM27.5626 12.9997C29.4956 12.9997 31.0626 14.5667 31.0626 16.4997H33.0626C33.0626 13.4621 30.6002 10.9997 27.5626 10.9997V12.9997ZM31.0626 16.4997V16.833H33.0626V16.4997H31.0626ZM31.0626 16.833C31.0626 18.766 29.4956 20.333 27.5626 20.333V22.333C30.6002 22.333 33.0626 19.8706 33.0626 16.833H31.0626ZM27.5626 20.333H26.6019V22.333H27.5626V20.333ZM25.6019 19.333V15.7404H23.6019V19.333H25.6019ZM25.6019 15.7404C25.6019 14.6358 24.7065 13.7404 23.6019 13.7404V15.7404H25.6019ZM23.6019 13.7404H13.6647V15.7404H23.6019V13.7404ZM13.6647 13.7404C12.5601 13.7404 11.6647 14.6358 11.6647 15.7404H13.6647V13.7404ZM11.6647 15.7404V19.333H13.6647V15.7404H11.6647ZM10.6647 20.333H9.70398V22.333H10.6647V20.333ZM9.70398 20.333C7.77098 20.333 6.20398 18.766 6.20398 16.833H4.20398C4.20398 19.8706 6.66641 22.333 9.70398 22.333V20.333ZM6.20398 16.833V16.4997H4.20398V16.833H6.20398ZM6.20398 16.4997C6.20398 14.5667 7.77098 12.9997 9.70398 12.9997V10.9997C6.66641 10.9997 4.20398 13.4621 4.20398 16.4997H6.20398ZM9.70398 12.9997H9.86147V10.9997H9.70398V12.9997ZM11.9556 7.28978C11.1564 8.22046 10.6003 9.31181 10.3398 10.4818L12.292 10.9164C12.4781 10.0805 12.8788 9.28461 13.473 8.59275L11.9556 7.28978ZM14.9303 5.10543C13.7741 5.61491 12.7544 6.35966 11.9556 7.28978L13.473 8.59275C14.0676 7.90033 14.8402 7.33069 15.7367 6.93562L14.9303 5.10543ZM18.6333 4.33301C17.353 4.33301 16.0863 4.596 14.9303 5.10543L15.7367 6.93562C16.6334 6.54049 17.6249 6.33301 18.6333 6.33301V4.33301ZM22.3363 5.10543C21.1803 4.596 19.9136 4.33301 18.6333 4.33301V6.33301C19.6417 6.33301 20.6332 6.54049 21.5299 6.93562L22.3363 5.10543ZM25.311 7.28978C24.5122 6.35966 23.4925 5.61491 22.3363 5.10543L21.5299 6.93562C22.4264 7.33069 23.199 7.90033 23.7936 8.59275L25.311 7.28978ZM26.9268 10.4818C26.6663 9.31181 26.1102 8.22046 25.311 7.28978L23.7936 8.59275C24.3878 9.28461 24.7885 10.0805 24.9746 10.9164L26.9268 10.4818ZM9.86147 12.9997C10.1081 12.9997 10.4069 13.0058 10.642 12.9556L10.2245 10.9997C10.264 10.9913 10.2725 10.9951 10.1956 10.9974C10.1233 10.9996 10.024 10.9997 9.86147 10.9997V12.9997ZM10.3398 10.4818C10.2926 10.6938 10.261 10.8354 10.236 10.9369C10.2237 10.9866 10.2156 11.0157 10.2108 11.0315C10.2051 11.0503 10.209 11.0335 10.2245 10.9997L12.043 11.8321C12.1089 11.6882 12.1503 11.5271 12.1776 11.4166C12.2096 11.2871 12.2471 11.1183 12.292 10.9164L10.3398 10.4818ZM10.642 12.9556C10.9154 12.8973 11.2145 12.7925 11.487 12.5741C11.7594 12.3556 11.9267 12.0864 12.043 11.8321L10.2245 10.9997C10.2152 11.0201 10.208 11.0339 10.203 11.0426C10.1982 11.0513 10.196 11.0541 10.197 11.0528C10.198 11.0514 10.2019 11.0461 10.2089 11.0386C10.2161 11.0309 10.2251 11.0223 10.2358 11.0138C10.2465 11.0052 10.2569 10.9982 10.2659 10.9929C10.2748 10.9877 10.2808 10.985 10.2824 10.9843C10.2839 10.9837 10.2806 10.9852 10.2711 10.988C10.2615 10.9909 10.2465 10.995 10.2245 10.9997L10.642 12.9556ZM11.6647 19.333C11.6647 19.8327 11.6626 20.1068 11.637 20.297C11.6153 20.4585 11.5944 20.4033 11.6647 20.333L13.0789 21.7472C13.4421 21.384 13.5677 20.9467 13.6192 20.5635C13.6668 20.2091 13.6647 19.7761 13.6647 19.333H11.6647ZM10.6647 22.333C11.1078 22.333 11.5408 22.3351 11.8952 22.2875C12.2784 22.236 12.7157 22.1104 13.0789 21.7472L11.6647 20.333C11.735 20.2627 11.7902 20.2836 11.6287 20.3053C11.4385 20.3309 11.1644 20.333 10.6647 20.333V22.333ZM26.6019 20.333C26.1022 20.333 25.8281 20.3309 25.6379 20.3053C25.4764 20.2836 25.5316 20.2627 25.6019 20.333L24.1877 21.7472C24.5509 22.1104 24.9882 22.236 25.3714 22.2875C25.7258 22.3351 26.1588 22.333 26.6019 22.333V20.333ZM23.6019 19.333C23.6019 19.7761 23.5998 20.2091 23.6474 20.5635C23.6989 20.9467 23.8245 21.384 24.1877 21.7472L25.6019 20.333C25.6722 20.4033 25.6513 20.4585 25.6296 20.297C25.604 20.1068 25.6019 19.8327 25.6019 19.333H23.6019ZM27.4051 10.9997C27.2426 10.9997 27.1433 10.9996 27.071 10.9974C26.9941 10.9951 27.0026 10.9913 27.0421 10.9997L26.6246 12.9556C26.8597 13.0058 27.1585 12.9997 27.4051 12.9997V10.9997ZM24.9746 10.9164C25.0195 11.1183 25.057 11.2871 25.089 11.4166C25.1163 11.5271 25.1576 11.6882 25.2236 11.8321L27.0421 10.9997C27.0576 11.0335 27.0615 11.0503 27.0558 11.0315C27.051 11.0157 27.0429 10.9866 27.0306 10.9369C27.0056 10.8354 26.974 10.6938 26.9268 10.4818L24.9746 10.9164ZM27.0421 10.9997C27.0201 10.995 27.0051 10.9909 26.9955 10.988C26.986 10.9852 26.9827 10.9837 26.9842 10.9843C26.9858 10.985 26.9918 10.9877 27.0007 10.9929C27.0097 10.9982 27.0201 11.0052 27.0308 11.0138C27.0415 11.0223 27.0505 11.0309 27.0577 11.0386C27.0647 11.0461 27.0686 11.0514 27.0696 11.0528C27.0706 11.0541 27.0684 11.0513 27.0636 11.0426C27.0586 11.0339 27.0514 11.0201 27.0421 10.9997L25.2236 11.8321C25.3399 12.0864 25.5071 12.3556 25.7796 12.5741C26.0521 12.7925 26.3512 12.8973 26.6246 12.9556L27.0421 10.9997Z" fill="white"/>
<rect x="12.6647" y="14.667" width="11.9372" height="13.3333" rx="2" stroke="white" stroke-width="2"/>
<path d="M17.8872 21.333H19.3794" stroke="white" stroke-width="2" stroke-linecap="round"/>
</svg>
