<svg width="33" height="32" viewBox="0 0 33 32" fill="none" xmlns="http://www.w3.org/2000/svg">
<path d="M13.719 20L13.719 16" stroke="white" stroke-width="2" stroke-linecap="round"/>
<path d="M19.0244 20L19.0244 16" stroke="white" stroke-width="2" stroke-linecap="round"/>
<path d="M4.43457 9.33301H28.3089V9.33301C26.4437 9.33301 25.5111 9.33301 24.9273 9.90721C24.9195 9.9149 24.9118 9.92266 24.9041 9.93047C24.3299 10.5142 24.3299 11.4468 24.3299 13.3121V22.6663C24.3299 24.552 24.3299 25.4948 23.7441 26.0806C23.1583 26.6663 22.2155 26.6663 20.3299 26.6663H12.4136C10.528 26.6663 9.5852 26.6663 8.99941 26.0806C8.41363 25.4948 8.41363 24.552 8.41363 22.6663V13.3121C8.41363 11.4468 8.41363 10.5142 7.83942 9.93047C7.83173 9.92266 7.82398 9.9149 7.81616 9.90721C7.23244 9.33301 6.29981 9.33301 4.43457 9.33301V9.33301Z" stroke="white" stroke-width="2" stroke-linecap="round"/>
<path d="M13.8094 4.49412C13.9605 4.35237 14.2936 4.2271 14.7568 4.13776C15.2201 4.04843 15.7878 4 16.3717 4C16.9557 4 17.5233 4.04842 17.9866 4.13776C18.4499 4.2271 18.7829 4.35236 18.934 4.49412" stroke="white" stroke-width="2" stroke-linecap="round"/>
</svg>
