<svg width="40" height="40" viewBox="0 0 40 40" fill="none" xmlns="http://www.w3.org/2000/svg">
<path fill-rule="evenodd" clip-rule="evenodd" d="M40 20C40 8.95431 31.0457 0 20 0C8.95431 0 0 8.95431 0 20C0 31.0457 8.95431 40 20 40C31.0457 40 40 31.0457 40 20ZM28.6692 13.5135C28.2582 13.2749 27.7512 13.2732 27.3385 13.509L18.6667 18.4643V14.6667C18.6667 14.1914 18.4137 13.752 18.0026 13.5135C17.5915 13.2749 17.0845 13.2732 16.6718 13.509L7.33848 18.8423C6.92305 19.0797 6.66667 19.5215 6.66667 20C6.66667 20.4785 6.92305 20.9203 7.33848 21.1577L16.6718 26.491C17.0845 26.7268 17.5915 26.7251 18.0026 26.4865C18.4137 26.248 18.6667 25.8086 18.6667 25.3333V21.5357L27.3385 26.491C27.7512 26.7268 28.2582 26.7251 28.6692 26.4865C29.0803 26.248 29.3333 25.8086 29.3333 25.3333V14.6667C29.3333 14.1914 29.0803 13.752 28.6692 13.5135Z" fill="#CFB0FF"/>
</svg>
