<svg width="40" height="40" viewBox="0 0 40 40" fill="none" xmlns="http://www.w3.org/2000/svg">
<path fill-rule="evenodd" clip-rule="evenodd" d="M0 20C0 8.95431 8.95431 0 20 0C31.0457 0 40 8.95431 40 20C40 31.0457 31.0457 40 20 40C8.95431 40 0 31.0457 0 20ZM11.3308 13.5135C11.7419 13.2749 12.2488 13.2732 12.6615 13.509L21.3333 18.4643V14.6667C21.3333 14.1914 21.5863 13.752 21.9974 13.5135C22.4085 13.2749 22.9155 13.2732 23.3282 13.509L32.6615 18.8423C33.077 19.0797 33.3333 19.5215 33.3333 20C33.3333 20.4785 33.077 20.9203 32.6615 21.1577L23.3282 26.491C22.9155 26.7268 22.4085 26.7251 21.9974 26.4865C21.5863 26.248 21.3333 25.8086 21.3333 25.3333V21.5357L12.6615 26.491C12.2488 26.7268 11.7419 26.7251 11.3308 26.4865C10.9197 26.248 10.6667 25.8086 10.6667 25.3333V14.6667C10.6667 14.1914 10.9197 13.752 11.3308 13.5135Z" fill="#CFB0FF"/>
</svg>
