<svg width="22" height="22" viewBox="0 0 22 22" fill="none" xmlns="http://www.w3.org/2000/svg">
<path d="M7.53041 9.13617L7.00008 8.60584L5.93942 9.6665L6.46975 10.1968L7.53041 9.13617ZM11.0001 13.6665L10.4697 14.1968L11.0001 14.7272L11.5304 14.1968L11.0001 13.6665ZM15.5304 10.1968L16.0607 9.6665L15.0001 8.60584L14.4697 9.13617L15.5304 10.1968ZM6.46975 10.1968L10.4697 14.1968L11.5304 13.1362L7.53041 9.13617L6.46975 10.1968ZM11.5304 14.1968L15.5304 10.1968L14.4697 9.13617L10.4697 13.1362L11.5304 14.1968ZM19.5834 10.9998C19.5834 15.7403 15.7405 19.5832 11.0001 19.5832L11.0001 21.0832C16.5689 21.0832 21.0834 16.5687 21.0834 10.9998H19.5834ZM11.0001 2.4165C15.7405 2.4165 19.5834 6.25939 19.5834 10.9998H21.0834C21.0834 5.43097 16.569 0.916505 11.0001 0.916504V2.4165ZM2.41675 10.9998C2.41675 6.25939 6.25964 2.4165 11.0001 2.4165V0.916504C5.43121 0.916503 0.916749 5.43096 0.916748 10.9998L2.41675 10.9998ZM0.916748 10.9998C0.916747 16.5687 5.43121 21.0832 11.0001 21.0832L11.0001 19.5832C6.25964 19.5832 2.41675 15.7403 2.41675 10.9998L0.916748 10.9998Z" fill="#424242"/>
</svg>
