<svg width="22" height="20" viewBox="0 0 22 20" fill="none" xmlns="http://www.w3.org/2000/svg">
<path d="M20.3334 4.6665L20.8637 5.19683C21.1566 4.90394 21.1566 4.42907 20.8637 4.13617L20.3334 4.6665ZM1.66675 15.3332L1.13642 14.8028C0.843525 15.0957 0.843525 15.5706 1.13642 15.8635L1.66675 15.3332ZM15.8031 1.19683L19.8031 5.19683L20.8637 4.13617L16.8637 0.136174L15.8031 1.19683ZM19.8031 4.13617L15.8031 8.13617L16.8637 9.19683L20.8637 5.19683L19.8031 4.13617ZM6.19708 18.8028L2.19708 14.8028L1.13642 15.8635L5.13642 19.8635L6.19708 18.8028ZM2.19708 15.8635L6.19708 11.8635L5.13642 10.8028L1.13642 14.8028L2.19708 15.8635ZM1.66675 16.0832H16.3334V14.5832H1.66675V16.0832ZM21.0834 11.3332V9.33317H19.5834V11.3332H21.0834ZM16.3334 16.0832C18.9568 16.0832 21.0834 13.9565 21.0834 11.3332H19.5834C19.5834 13.1281 18.1283 14.5832 16.3334 14.5832V16.0832ZM20.3334 3.9165H5.66675V5.4165H20.3334V3.9165ZM0.916748 8.6665V10.6665H2.41675V8.6665H0.916748ZM5.66675 3.9165C3.0434 3.9165 0.916748 6.04315 0.916748 8.6665H2.41675C2.41675 6.87158 3.87182 5.4165 5.66675 5.4165V3.9165Z" fill="#424242"/>
</svg>
