<svg width="22" height="21" viewBox="0 0 22 21" fill="none" xmlns="http://www.w3.org/2000/svg">
<path d="M20.3334 1.6665L21.0188 1.97111C21.1219 1.73911 21.1006 1.4707 20.9623 1.25782C20.8239 1.04494 20.5873 0.916504 20.3334 0.916504V1.6665ZM1.66675 1.6665V0.916504C1.25253 0.916504 0.916748 1.25229 0.916748 1.6665L1.66675 1.6665ZM20.3334 13.6665V14.4165C20.5873 14.4165 20.8239 14.2881 20.9623 14.0752C21.1006 13.8623 21.1219 13.5939 21.0188 13.3619L20.3334 13.6665ZM17.6667 7.6665L16.9814 7.3619C16.8952 7.55582 16.8952 7.77718 16.9814 7.97111L17.6667 7.6665ZM20.3334 0.916504H1.66675V2.4165H20.3334V0.916504ZM0.916748 1.6665V13.6665H2.41675V1.6665H0.916748ZM1.66675 14.4165H20.3334V12.9165H1.66675V14.4165ZM21.0188 13.3619L18.3521 7.3619L16.9814 7.97111L19.6481 13.9711L21.0188 13.3619ZM18.3521 7.97111L21.0188 1.97111L19.6481 1.3619L16.9814 7.3619L18.3521 7.97111ZM2.41675 20.9998V13.6665H0.916748V20.9998H2.41675Z" fill="#424242"/>
</svg>
