<svg width="20" height="20" viewBox="0 0 20 20" fill="none" xmlns="http://www.w3.org/2000/svg">
<path d="M6.66667 3.33333C6.66667 1.49238 8.15905 0 10 0C11.8409 0 13.3333 1.49238 13.3333 3.33333C13.3333 5.17428 11.8409 6.66667 10 6.66667C8.15905 6.66667 6.66667 5.17428 6.66667 3.33333Z" fill="#424242"/>
<path d="M10 8C7.42267 8 5.33333 10.0893 5.33333 12.6667V15.3333C5.33333 15.7015 5.63181 16 6 16H14C14.3682 16 14.6667 15.7015 14.6667 15.3333V12.6667C14.6667 10.0893 12.5773 8 10 8Z" fill="#424242"/>
<path d="M1.85931 14.2602C1.48106 14.6491 1.33333 15.0106 1.33333 15.3332C1.33333 15.6601 1.48507 16.0272 1.87462 16.4219C2.26701 16.8195 2.86785 17.2081 3.66295 17.5489C5.25077 18.2294 7.49079 18.6666 10 18.6666C12.5092 18.6666 14.7492 18.2294 16.3371 17.5489C17.1321 17.2081 17.733 16.8195 18.1254 16.4219C18.5149 16.0272 18.6667 15.6601 18.6667 15.3332C18.6667 15.0106 18.5189 14.6491 18.1407 14.2602C17.7594 13.8682 17.1749 13.4837 16.3995 13.1446L16.9338 11.923C17.808 12.3053 18.5568 12.7757 19.0965 13.3306C19.6392 13.8885 20 14.566 20 15.3332C20 16.111 19.6294 16.7961 19.0744 17.3585C18.5222 17.918 17.7562 18.3913 16.8623 18.7744C15.0721 19.5416 12.6455 19.9999 10 19.9999C7.35455 19.9999 4.92791 19.5416 3.13772 18.7744C2.24382 18.3913 1.47783 17.918 0.925628 17.3585C0.370601 16.7961 0 16.111 0 15.3332C0 14.566 0.360814 13.8885 0.903502 13.3306C1.44318 12.7757 2.192 12.3053 3.0662 11.923L3.60047 13.1446C2.82508 13.4837 2.24058 13.8682 1.85931 14.2602Z" fill="#424242"/>
</svg>
