<svg width="24" height="24" viewBox="0 0 24 24" fill="none" xmlns="http://www.w3.org/2000/svg">
<path fill-rule="evenodd" clip-rule="evenodd" d="M0 12C0 5.37258 5.37258 0 12 0C18.6274 0 24 5.37258 24 12C24 18.6274 18.6274 24 12 24C5.37258 24 0 18.6274 0 12ZM9.99846 8.10807C10.2451 7.96493 10.5493 7.96392 10.7969 8.10541L16.3969 11.3054C16.6462 11.4478 16.8 11.7129 16.8 12C16.8 12.2871 16.6462 12.5522 16.3969 12.6946L10.7969 15.8946C10.5493 16.0361 10.2451 16.0351 9.99846 15.8919C9.75181 15.7488 9.6 15.4852 9.6 15.2V8.8C9.6 8.51482 9.75181 8.25121 9.99846 8.10807Z" fill="#882BFF"/>
</svg>
