<svg width="40" height="40" viewBox="0 0 40 40" fill="none" xmlns="http://www.w3.org/2000/svg">
<path fill-rule="evenodd" clip-rule="evenodd" d="M0 20C0 8.95431 8.95431 0 20 0C31.0457 0 40 8.95431 40 20C40 31.0457 31.0457 40 20 40C8.95431 40 0 31.0457 0 20ZM16.6641 13.5135C17.0752 13.2749 17.5822 13.2732 17.9949 13.509L27.3282 18.8423C27.7436 19.0797 28 19.5215 28 20C28 20.4785 27.7436 20.9203 27.3282 21.1577L17.9949 26.491C17.5822 26.7268 17.0752 26.7251 16.6641 26.4865C16.253 26.248 16 25.8086 16 25.3333V14.6667C16 14.1914 16.253 13.752 16.6641 13.5135Z" fill="#CFB0FF"/>
</svg>
