<svg width="20" height="20" viewBox="0 0 20 20" fill="none" xmlns="http://www.w3.org/2000/svg">
<path d="M11.6619 1.42008C11.8708 1.53843 12 1.76002 12 2.00016V18.0002C12 18.2403 11.8708 18.462 11.6618 18.5803C11.4528 18.6986 11.1963 18.6954 10.9903 18.5718L4.48201 14.6668H2C0.896088 14.6668 0 13.7721 0 12.6668V7.33002C0 6.22413 0.896654 5.33089 2 5.33089H4.48211L10.9905 1.4284C11.1965 1.30491 11.4529 1.30173 11.6619 1.42008Z" fill="#424242"/>
<path d="M18.4714 5.526L17.9998 5.05475L17.0573 5.99786L17.5259 6.4662L17.5289 6.46929C17.5336 6.47431 17.5428 6.48428 17.5558 6.49918C17.5819 6.529 17.6234 6.57848 17.6752 6.64756C17.779 6.78581 17.9237 7.00177 18.0706 7.2952C18.3631 7.87989 18.6668 8.77774 18.6668 9.99495C18.6668 11.2122 18.3631 12.11 18.0706 12.6947C17.9237 12.9881 17.779 13.2041 17.6752 13.3423C17.6234 13.4114 17.5819 13.4609 17.5558 13.4907C17.5428 13.5056 17.5336 13.5156 17.5289 13.5206L17.5259 13.5237L17.0573 13.992L17.9998 14.9351L18.4714 14.4639L18.0001 13.9923C18.4714 14.4639 18.4711 14.4641 18.4714 14.4639L18.4723 14.4629L18.4734 14.4618L18.476 14.4592L18.4826 14.4525L18.5013 14.4328C18.5161 14.417 18.5356 14.3958 18.559 14.369C18.6058 14.3156 18.6685 14.2401 18.7416 14.1427C18.8879 13.9478 19.0765 13.6641 19.263 13.2913C19.6371 12.5435 20.0001 11.4427 20.0001 9.99495C20.0001 8.54723 19.6371 7.44638 19.263 6.6986C19.0765 6.32581 18.8879 6.04209 18.7416 5.84722C18.6685 5.74975 18.6058 5.6743 18.559 5.62085C18.5356 5.59411 18.5161 5.57285 18.5013 5.55705L18.4826 5.53744L18.476 5.5307L18.4734 5.52809L18.4723 5.52698C18.4721 5.52674 18.4714 5.526 18.0001 5.99755L18.4714 5.526Z" fill="#424242"/>
</svg>
