<svg width="21" height="35" viewBox="0 0 21 35" fill="none" xmlns="http://www.w3.org/2000/svg">
<g clip-path="url(#clip0)">
<path d="M18.6369 0.766694C15.9588 7.17493 14.0053 13.7671 13.0128 20.62C12.6662 23.0115 12.871 25.909 12.0833 28.1933C11.0593 31.1521 1.30759 35.5061 7.60917 28.178C9.89349 24.1 10.823 23.7628 10.3976 27.1355C10.7442 29.3585 10.1771 31.3974 8.68044 33.2678C8.00302 34.5862 10.0353 35.7514 10.7284 34.4329C12.3038 31.3668 13.1703 28.4539 13.5957 25.0505C13.6429 24.6366 13.3278 24.284 13.0128 24.054C3.1508 16.9406 -6.22279 30.0023 5.35635 34.203C9.94075 35.874 12.7607 33.8963 14.1628 29.5424C15.4546 25.4951 15.2341 20.8346 16.0848 16.7106C17.1561 11.4369 18.8417 6.3624 20.9212 1.37992C21.4884 0.000158475 19.2041 -0.597739 18.6369 0.766694Z" fill="white"/>
</g>
<defs>
<clipPath id="clip0">
<rect width="21" height="35" fill="white"/>
</clipPath>
</defs>
</svg>
