<svg width="40" height="32" viewBox="0 0 40 32" fill="none" xmlns="http://www.w3.org/2000/svg">
<g clip-path="url(#clip0)">
<path d="M38.781 24.9821C37.3636 23.9572 35.5351 21.1814 33.338 21.9216C31.5096 22.5337 30.4323 26.0639 30.4181 27.6013C30.3756 31.886 34.6421 33.4376 37.7037 30.4198C40.5103 27.6582 39.7732 22.2063 39.6598 18.8041C39.5464 16.9963 39.433 15.2027 39.348 13.3949C39.2062 10.7614 39.3621 8.14222 39.8441 5.53724C39.7449 5.05326 40.2268 4.15646 39.8441 3.74365C38.4833 2.30592 37.7888 2.74721 35.9036 3.00343C27.4132 4.12799 21.4458 4.8682 13.6499 0.0710483C13.3522 -0.114005 12.9695 0.0710483 12.8703 0.384216C11.7222 4.12799 10.7725 7.85752 10.2197 11.7294C10.0779 12.7259 9.5535 20.37 7.51239 18.3771C8.00849 18.8611 8.75973 18.1066 8.26363 17.6227C4.49325 13.9358 -0.793777 17.8931 0.113381 22.8753C1.2615 29.2098 8.36285 25.8789 9.9362 21.6084C10.5174 20.0568 10.5599 18.3202 10.73 16.6831C10.9993 14.2347 11.0276 4.89667 13.1396 3.14578C15.5067 1.18137 23.1325 5.1956 26.5202 5.36642C28.7314 5.4803 30.9142 5.30948 33.0687 4.85397C36.0737 4.22763 37.5053 4.15646 38.4125 7.88599C38.5967 8.64044 38.1857 9.92158 38.2424 10.7045C38.5117 13.8219 39.3054 18.4483 38.6959 21.5088C39.5181 24.2561 38.3558 25.4661 35.2374 25.1529C30.9709 26.2917 30.6733 26.4056 34.3302 25.4945C39.7165 26.5052 34.7697 23.3878 38.2282 25.8931C38.7952 26.3059 39.3338 25.3807 38.781 24.9821Z" fill="white"/>
</g>
<defs>
<clipPath id="clip0">
<rect width="40" height="32" fill="white"/>
</clipPath>
</defs>
</svg>
