<svg width="17" height="41" viewBox="0 0 17 41" fill="none" xmlns="http://www.w3.org/2000/svg">
<g clip-path="url(#clip0)">
<path d="M8.64458 23.4916C12.9458 23.0577 8.48365 21.1424 9.49311 18.4788C9.90275 17.3865 12.2435 16.0248 13.0336 15.0821C14.7014 13.077 16.1936 10.6679 16.7349 8.04928C17.1738 5.9095 17.3933 0.627386 14.1601 0.0438098C10.5904 -0.584657 10.1661 5.32593 9.91738 7.63031C9.47849 11.8351 9.52238 16.1745 9.34682 20.3942C9.22978 23.0726 9.11274 25.7511 8.9957 28.4296C8.95181 29.3274 8.92255 30.2102 8.87866 31.108C9.52238 35.1931 7.07917 36.8989 1.56368 36.2405C1.9148 35.6121 0.963855 35.0434 0.612736 35.6719C-2.54733 41.4029 7.02065 43.0938 9.22978 37.7518C11.5559 32.1256 10.2831 23.7011 10.5465 17.7007C10.6343 15.561 10.2685 11.7004 10.8976 9.66534C10.9415 9.00695 10.9854 8.31863 11.0146 7.63031C12.6678 6.94198 14.3064 6.25366 15.9596 5.56534C20.0998 8.24381 7.89845 17.8354 6.61102 19.3018C2.42685 24.0303 4.47504 33.4124 12.0534 31.108C14.1747 30.4646 16.691 28.2949 16.2814 25.7212C15.7401 22.2646 11.2341 22.1299 8.64458 22.3843C7.94234 22.4442 7.94234 23.5664 8.64458 23.4916Z" fill="white"/>
</g>
<defs>
<clipPath id="clip0">
<rect width="17" height="41" fill="white"/>
</clipPath>
</defs>
</svg>
