<svg width="166" height="384" viewBox="0 0 166 384" fill="none" xmlns="http://www.w3.org/2000/svg">
<g clip-path="url(#clip0)">
<path d="M166 310.178C166 310.178 159.589 310.178 155.922 306.507C152.255 302.836 140.663 295.186 126.919 301.154C113.174 307.123 88.2396 309.088 79.4629 308.212C77.0263 307.975 74.6369 306.388 72.2949 303.949C62.8322 293.955 58.3847 266.932 56.1373 255.162C55.6641 252.675 54.8835 248.886 53.9845 244.717C49.9392 226.268 42.9841 200.382 45.9175 246.588C46.2014 251.041 46.5799 256.156 47.053 262.03C47.5735 268.401 49.3004 287.134 51.0984 308.212C53.7243 338.882 56.4212 374.478 55.6168 383.998H5.25142C5.25142 383.998 5.77187 380.754 15.5185 374.17C20.2735 370.949 12.1119 337.816 8.23218 308.733C6.07941 292.723 4.06858 274.724 3.00402 256.464C1.22976 225.771 2.15237 194.343 9.67525 170.328C9.67525 170.328 20.6757 151.382 20.6757 137.314C20.6757 132.364 18.381 117.538 15.3529 99.9416C9.67525 67.4482 1.46633 25.4815 0.425425 18.7792C-1.18324 8.45328 2.15237 -4.21725 3.64275 1.34831C5.32239 7.55332 1.56095 8.45328 7.30956 6.84282C13.0345 5.23236 14.6432 7.2928 14.6432 7.2928C14.6432 7.2928 14.6905 0.614127 17.1508 0.874642C19.4928 1.11147 18.5229 14.6346 18.5229 14.6346C18.5229 14.6346 24.2005 9.70849 24.5317 10.0401C26.1404 11.7452 20.8176 19.7028 20.8176 19.7028C20.8176 19.7028 26.306 68.6324 31.818 79.5977C32.3622 80.6872 32.8589 81.7292 33.3321 82.6766C37.543 91.4157 38.9151 95.2997 47.9283 96.7444C53.3458 97.597 58.8578 94.0208 64.3699 86.4895C69.0302 80.1424 73.667 71.0007 78.3037 59.3722C86.3234 39.0994 86.8202 24.9368 86.6782 19.987C86.6546 19.2765 87.5062 18.8739 88.0267 19.3476L91.5989 22.4738C91.5989 22.4738 94.0355 9.92164 97.7733 11.2242C99.5003 11.84 97.7733 17.1924 97.7733 17.1924C97.7733 17.1924 102.126 17.6424 105.107 20.1528C105.107 20.1528 107.212 15.3688 109.223 16.0556C111.565 16.8371 104.634 45.8491 100.754 58.9223C98.0099 68.1587 86.0159 94.684 77.6886 113.062C74.1874 120.759 71.325 127.012 70.0475 129.996C65.6946 140.085 63.7311 151.097 70.1421 159.339C76.5531 167.605 90.4397 197.848 94.556 220.324C95.4313 225.108 95.9044 230.081 96.141 234.96C97.0872 253.054 94.9581 269.798 98.9088 270.153C103.948 270.603 149.96 255.635 154.999 259.306C160.062 262.953 166 310.178 166 310.178Z" fill="#FAE4E3"/>
<path d="M96.1413 234.937L53.9612 244.718L45.8942 246.589L2.98073 256.536C1.20647 225.772 2.12908 194.344 9.65196 170.329C9.65196 170.329 20.6524 151.383 20.6524 137.315C20.6524 132.365 18.3577 117.539 15.3296 99.9426L33.3088 82.6538C37.5197 91.3929 38.8918 95.277 47.9051 96.7217C53.3225 97.5742 58.8345 93.9981 64.3466 86.4668L77.6654 113.016C74.1641 120.713 71.3017 126.965 70.0242 129.949C65.6713 140.038 63.7078 151.051 70.1188 159.293C76.5298 167.558 90.4164 197.802 94.5327 220.277C95.4316 225.085 95.9048 230.058 96.1413 234.937Z" fill="#F1A3C4"/>
<path d="M51.903 66.1934C51.903 66.1934 43.3866 61.5515 40.0273 74.7668C38.1821 82.0375 39.4359 87.9346 45.6103 88.9293C51.7611 89.924 59.0711 71.3801 51.903 66.1934Z" fill="#FAE4E3"/>
<path d="M51.7375 81.5171C51.7375 81.5171 57.1076 77.1594 56.3269 81.5171C55.5226 85.8748 51.146 86.2774 50.5546 85.2827C49.9632 84.288 53.4881 81.5171 53.4881 81.5171H51.7375Z" fill="#FAE4E3"/>
<path d="M47.905 99.9663C45.705 99.9663 43.9307 98.1664 43.9307 95.9875V82.7012C43.9307 80.4986 45.7286 78.7224 47.905 78.7224C50.1051 78.7224 51.8794 80.5223 51.8794 82.7012V95.9875C51.903 98.1664 50.1051 99.9663 47.905 99.9663Z" fill="#FAE4E3"/>
<path d="M49.632 73.9621C49.632 73.9621 44.3092 70.7175 41.8726 73.9621C39.4122 77.2067 39.9564 87.6273 43.9544 88.4799V97.5032L34.326 113.063L24.5558 109.274C24.5558 109.274 36.5025 95.1112 35.7218 90.5404C34.9174 85.9458 33.0249 60.2258 50.5073 65.4124L49.632 73.9621Z" fill="#031433"/>
<path d="M51.903 66.1938L51.217 74.4593L54.0322 80.0012C54.0322 80.0012 56.9183 78.4854 56.3032 81.4932C55.6881 84.5247 51.8794 85.7088 51.8794 85.7088L51.5955 97.3847L47.8814 115.905L64.3465 113.039C64.3465 113.039 57.2968 93.2164 59.8281 88.8587C62.383 84.5484 69.8349 68.0648 51.903 66.1938Z" fill="#031433"/>
<path d="M51.0987 308.213C53.7246 338.883 56.4215 374.479 55.6172 384H5.25179C5.25179 384 0.66236 378.671 14.407 367.658C18.8781 364.058 12.1123 337.841 8.20889 308.758C8.20889 308.711 49.1825 308.711 49.1825 308.711L51.0987 308.213Z" fill="#E1558B"/>
<path d="M166 310.179C166 310.179 159.589 310.179 155.922 306.508C152.255 302.837 140.664 295.188 126.919 301.156C113.174 307.124 88.24 309.09 79.4633 308.214C77.0267 307.977 74.6373 306.39 72.2953 303.951L98.9092 270.155C103.948 270.605 149.961 255.637 155 259.308C160.062 262.955 166 310.179 166 310.179Z" fill="#E1558B"/>
</g>
<defs>
<clipPath id="clip0">
<rect width="166" height="384" fill="white"/>
</clipPath>
</defs>
</svg>
