<svg width="80" height="80" viewBox="0 0 80 80" fill="none" xmlns="http://www.w3.org/2000/svg">
<circle cx="40" cy="40" r="39.5" fill="white" fill-opacity="0.12" stroke="white" stroke-dasharray="4 4"/>
<path d="M25 35V49C25 51.8284 25 53.2426 25.8787 54.1213C26.7574 55 28.1716 55 31 55H49C51.8284 55 53.2426 55 54.1213 54.1213C55 53.2426 55 51.8284 55 49V31C55 28.1716 55 26.7574 54.1213 25.8787C53.2426 25 51.8284 25 49 25H35" stroke="white" stroke-width="2" stroke-linecap="round"/>
<path d="M45 45V46H46V45H45ZM32.3738 30.9596C31.9832 30.569 31.3501 30.569 30.9596 30.9596C30.569 31.3501 30.569 31.9832 30.9596 32.3738L32.3738 30.9596ZM44 33.3333V45H46V33.3333H44ZM45 44H33.3333V46H45V44ZM45.7071 44.2929L32.3738 30.9596L30.9596 32.3738L44.2929 45.7071L45.7071 44.2929Z" fill="white"/>
</svg>
