<svg width="50" height="50" viewBox="0 0 50 50" fill="none" xmlns="http://www.w3.org/2000/svg">
<circle cx="25" cy="25" r="24.5" fill="white" fill-opacity="0.12" stroke="white" stroke-dasharray="4 4"/>
<path d="M15.625 15.625L16.3321 14.9179L14.625 13.2108V15.625H15.625ZM25.3346 26.7488C25.7251 27.1393 26.3583 27.1393 26.7488 26.7488C27.1393 26.3583 27.1393 25.7251 26.7488 25.3346L25.3346 26.7488ZM16.625 23.9583V15.625H14.625V23.9583H16.625ZM15.625 16.625H23.9583V14.625H15.625V16.625ZM14.9179 16.3321L25.3346 26.7488L26.7488 25.3346L16.3321 14.9179L14.9179 16.3321Z" fill="white"/>
<path d="M16.6667 28.1251V28.1251C16.6667 30.1921 16.6667 31.2256 17.1543 31.9728C17.3816 32.3212 17.6789 32.6185 18.0273 32.8459C18.7745 33.3334 19.8081 33.3334 21.8751 33.3334H27.3334C30.1618 33.3334 31.5761 33.3334 32.4547 32.4547C33.3334 31.5761 33.3334 30.1618 33.3334 27.3334V21.8751C33.3334 19.8081 33.3334 18.7745 32.8459 18.0273C32.6185 17.6789 32.3212 17.3816 31.9728 17.1543C31.2256 16.6667 30.1921 16.6667 28.1251 16.6667V16.6667" stroke="white" stroke-width="2" stroke-linecap="round"/>
</svg>
