<svg width="48" height="48" viewBox="0 0 48 48" fill="none" xmlns="http://www.w3.org/2000/svg">
<g clip-path="url(#clip0)">
<path d="M45.3508 48C46.813 48 48 46.813 48 45.3508V2.64918C48 1.18521 46.813 0 45.3508 0H2.64918C1.18521 0 0 1.18521 0 2.64918V45.3508C0 46.813 1.18521 48 2.64918 48H45.3508Z" fill="#3B5998"/>
<path d="M33.1191 48V29.4125H39.358L40.2915 22.1682H33.1173V17.5425C33.1173 15.4454 33.7 14.0156 36.7071 14.0156L40.5433 14.0138V7.53566C39.8796 7.44753 37.6027 7.24969 34.9535 7.24969C29.4232 7.24969 25.6355 10.6255 25.6355 16.8249V22.1682H19.3804V29.4125H25.6355V48.0018H33.1191V48Z" fill="white"/>
</g>
<defs>
<clipPath id="clip0">
<rect width="48" height="48" fill="white"/>
</clipPath>
</defs>
</svg>
