<svg width="48" height="48" viewBox="0 0 48 48" fill="none" xmlns="http://www.w3.org/2000/svg">
<g clip-path="url(#clip0)">
<path fill-rule="evenodd" clip-rule="evenodd" d="M47.0391 24.5449C47.0391 22.8424 46.8854 21.2077 46.6027 19.6364H24V28.9198H36.9168C36.3606 31.9201 34.6694 34.4614 32.1281 36.1639V42.1848H39.8855C44.4209 38.0066 47.0391 31.8545 47.0391 24.5449Z" fill="#3E82F1"/>
<path fill-rule="evenodd" clip-rule="evenodd" d="M24.0001 48.0001C30.48 48.0001 35.9131 45.8499 39.8833 42.1849L32.126 36.164C29.9758 37.6042 27.2288 38.4544 23.9979 38.4544C17.7463 38.4544 12.4557 34.2332 10.5678 28.5604H2.55273V34.778C6.50262 42.6213 14.6172 48.0001 24.0001 48.0001Z" fill="#32A753"/>
<path fill-rule="evenodd" clip-rule="evenodd" d="M10.5699 28.5603C10.0906 27.1201 9.81705 25.5827 9.81705 24C9.81705 22.4173 10.0906 20.8799 10.5699 19.4397V13.222H2.55261C0.92699 16.462 0 20.127 0 24C0 27.873 0.92699 31.538 2.55261 34.778L10.5699 28.5603Z" fill="#F9BB00"/>
<path fill-rule="evenodd" clip-rule="evenodd" d="M24.0001 9.54574C27.5227 9.54574 30.688 10.7576 33.1751 13.1339L40.0597 6.24927C35.9018 2.37852 30.4687 0 24.0001 0C14.6172 0 6.50262 5.3788 2.55273 13.222L10.5701 19.4397C12.458 13.7669 17.7486 9.54574 24.0001 9.54574Z" fill="#E74133"/>
</g>
<defs>
<clipPath id="clip0">
<rect width="47.0391" height="48" fill="white"/>
</clipPath>
</defs>
</svg>
