<svg width="48" height="48" viewBox="0 0 48 48" fill="none" xmlns="http://www.w3.org/2000/svg">
<path d="M44.1331 48H3.86688C1.73952 48 0 46.2605 0 44.1331V3.86688C0 1.73952 1.73952 0 3.86688 0H44.1331C46.2605 0 48 1.73952 48 3.86688V44.1331C48 46.2605 46.2605 48 44.1331 48Z" fill="#FAE300"/>
<path d="M23.8571 7.44879C13.6225 7.44879 5.32617 14.0075 5.32617 22.0984C5.32617 27.365 8.84169 31.9797 14.1169 34.5621C13.7291 36.0098 12.7134 39.8046 12.5099 40.6168C12.2593 41.6248 12.8795 41.6114 13.2855 41.3397C13.6043 41.1275 18.3639 37.8923 20.4174 36.4955C21.5319 36.6606 22.6811 36.748 23.8571 36.748C34.0916 36.748 42.3879 30.1883 42.3879 22.0984C42.3879 14.0075 34.0907 7.44879 23.8571 7.44879Z" fill="#391B1B"/>
<path d="M16.3999 17.784H10.9807C10.4709 17.784 10.0591 18.1968 10.0591 18.7056C10.0591 19.2144 10.4719 19.6272 10.9807 19.6272H12.7423V26.1187C12.7423 26.3549 12.8383 26.5872 13.0072 26.7552C13.1724 26.9222 13.4037 27.0182 13.6408 27.0182H13.8376C14.0738 27.0182 14.3042 26.9222 14.4703 26.7552C14.6392 26.5872 14.7352 26.3558 14.7352 26.1187V19.6272H16.3989C16.9087 19.6272 17.3215 19.2144 17.3215 18.7056C17.3224 18.1968 16.9096 17.784 16.3999 17.784Z" fill="#FAE300"/>
<path d="M29.4235 25.2846H26.9035V18.6548C26.9035 18.1018 26.4561 17.6545 25.9041 17.6545C25.3521 17.6545 24.9048 18.1018 24.9048 18.6548V25.801C24.9048 25.8567 24.9115 25.9086 24.9201 25.9614C24.9105 26.0132 24.9048 26.067 24.9048 26.1207C24.9048 26.5834 25.2782 26.9578 25.7409 26.9578H29.4235C29.8872 26.9578 30.2597 26.5834 30.2597 26.1207C30.2597 25.6599 29.8862 25.2846 29.4235 25.2846Z" fill="#FAE300"/>
<path d="M37.4755 25.5889L34.6675 21.9006L37.2048 19.3623C37.5484 19.0196 37.5484 18.4618 37.2048 18.1182C36.8611 17.7745 36.3043 17.7745 35.9596 18.1182L32.8185 21.2593V18.6548C32.8185 18.1018 32.3712 17.6545 31.8192 17.6545C31.2672 17.6545 30.8188 18.1018 30.8188 18.6548V26.0209C30.8188 26.5738 31.2662 27.0212 31.8192 27.0212C32.3712 27.0212 32.8185 26.5748 32.8185 26.0209V23.7486L33.3897 23.1783L36.0461 26.6641C36.3417 27.0586 36.9033 27.1402 37.2979 26.8417C37.6925 26.545 37.7721 25.9834 37.4755 25.5889Z" fill="#FAE300"/>
<path d="M24.1547 25.8277L21.4542 18.4396C21.4542 18.4396 21.4475 18.4338 21.4456 18.4309C21.2728 17.9807 20.7746 17.6533 20.1803 17.6533C19.5208 17.6533 18.9755 18.0565 18.867 18.5836C18.8488 18.6229 18.8306 18.6623 18.8152 18.7045L16.1598 25.8277C15.9957 26.2952 16.2414 26.806 16.707 26.9701C17.1736 27.1343 17.6853 26.8885 17.8494 26.422L18.3093 25.1106H22.0053L22.4642 26.422C22.6283 26.8885 23.14 27.1343 23.6066 26.9701C24.0731 26.8069 24.3189 26.2952 24.1547 25.8277ZM18.8958 23.4364L20.1381 19.892C20.1525 19.892 20.164 19.8959 20.1784 19.8959L21.4197 23.4364H18.8958Z" fill="#FAE300"/>
</svg>
