<svg width="80" height="80" viewBox="0 0 80 80" fill="none" xmlns="http://www.w3.org/2000/svg">
<circle cx="40" cy="40" r="40" fill="url(#paint0_linear)"/>
<path d="M20.5 20.5L21.9142 19.0858L18.5 15.6716V20.5H20.5ZM40.7525 43.5809C41.5335 44.3619 42.7998 44.3619 43.5809 43.5809C44.3619 42.7998 44.3619 41.5335 43.5809 40.7525L40.7525 43.5809ZM22.5 37.8333V20.5H18.5V37.8333H22.5ZM20.5 22.5H37.8333V18.5H20.5V22.5ZM19.0858 21.9142L40.7525 43.5809L43.5809 40.7525L21.9142 19.0858L19.0858 21.9142Z" fill="white"/>
<path d="M22.6667 46.4998V51.3332C22.6667 54.1616 22.6667 55.5758 23.5454 56.4545C24.4241 57.3332 25.8383 57.3332 28.6667 57.3332H51.3334C54.1618 57.3332 55.5761 57.3332 56.4547 56.4545C57.3334 55.5758 57.3334 54.1616 57.3334 51.3332V28.6665C57.3334 25.8381 57.3334 24.4239 56.4547 23.5452C55.5761 22.6665 54.1618 22.6665 51.3334 22.6665H46.5001" stroke="white" stroke-width="4" stroke-linecap="round"/>
<defs>
<linearGradient id="paint0_linear" x1="40" y1="0" x2="40" y2="80" gradientUnits="userSpaceOnUse">
<stop stop-color="#9E61FF"/>
<stop offset="0.53125" stop-color="#882BFF"/>
<stop offset="1" stop-color="#6500E7"/>
</linearGradient>
</defs>
</svg>
