<svg width="117" height="176" viewBox="0 0 117 176" fill="none" xmlns="http://www.w3.org/2000/svg">
<g clip-path="url(#clip0_643:2101)">
<path d="M-0.168457 -1.49146C-0.168457 21.1992 12.9 41.873 33.3403 51.6216V174.992H50.0947V116.164H66.8491V174.992H83.6034V51.5375C104.044 41.873 117.112 21.1992 117.112 -1.49146H100.358C100.358 9.6532 95.9449 20.3408 88.0897 28.221C84.2003 32.1229 79.5828 35.218 74.501 37.3298C69.4191 39.4414 63.9725 40.5284 58.4719 40.5284C47.363 40.5284 36.7092 36.1012 28.854 28.221C20.9989 20.3408 16.586 9.6532 16.586 -1.49146H-0.168457ZM58.4719 -1.49146C49.1732 -1.49146 41.7175 5.9884 41.7175 15.3168C41.7175 24.6449 49.1732 32.1243 58.4719 32.1243C67.7705 32.1243 75.2263 24.6449 75.2263 15.3168C75.2263 5.9884 67.7705 -1.49146 58.4719 -1.49146Z" fill="#FF5354"/>
</g>
<defs>
<clipPath id="clip0_643:2101">
<rect width="19.1" height="59.5" fill="white" transform="translate(32 116.5)"/>
</clipPath>
</defs>
</svg>
