<svg width="117" height="175" viewBox="0 0 117 175" fill="none" xmlns="http://www.w3.org/2000/svg">
<g clip-path="url(#clip0_643:2101)">
<path d="M-0.268311 -0.48291C-0.268311 22.0789 12.8001 42.6352 33.2405 52.3284V174.997H49.9949V116.504H66.7493V174.997H83.5036V52.2448C103.944 42.6352 117.012 22.0789 117.012 -0.48291H100.258C100.258 10.5981 95.845 21.2254 87.9899 29.0609C84.1004 32.9406 79.4829 36.0181 74.4011 38.1178C69.3192 40.2175 63.8726 41.2982 58.372 41.2982C47.2631 41.2982 36.6093 36.8963 28.7542 29.0609C20.899 21.2254 16.4861 10.5981 16.4861 -0.48291H-0.268311ZM58.372 -0.48291C49.0733 -0.48291 41.6176 6.95409 41.6176 16.2301C41.6176 25.505 49.0733 32.942 58.372 32.942C67.6707 32.942 75.1264 25.505 75.1264 16.2301C75.1264 6.95409 67.6707 -0.48291 58.372 -0.48291Z" fill="#FF5354"/>
</g>
<defs>
<clipPath id="clip0_643:2101">
<rect width="18" height="58" fill="white" transform="translate(32.6001 117)"/>
</clipPath>
</defs>
</svg>
