<svg width="60" height="60" viewBox="0 0 60 60" fill="none" xmlns="http://www.w3.org/2000/svg">
<circle cx="30" cy="30" r="30" fill="#882BFF"/>
<path d="M35.3332 19.3335C35.6869 19.3335 36.026 19.474 36.2761 19.724C36.5261 19.9741 36.6666 20.3132 36.6666 20.6668V26.2668L43.6172 21.4002C43.7172 21.3301 43.8345 21.2888 43.9562 21.2808C44.078 21.2728 44.1997 21.2984 44.3079 21.3548C44.4162 21.4112 44.5069 21.4962 44.5701 21.6006C44.6333 21.705 44.6667 21.8248 44.6666 21.9468V38.0535C44.6667 38.1756 44.6333 38.2953 44.5701 38.3997C44.5069 38.5041 44.4162 38.5891 44.3079 38.6455C44.1997 38.7019 44.078 38.7275 43.9562 38.7195C43.8345 38.7115 43.7172 38.6702 43.6172 38.6002L36.6666 33.7335V39.3335C36.6666 39.6871 36.5261 40.0263 36.2761 40.2763C36.026 40.5264 35.6869 40.6668 35.3332 40.6668H16.6666C16.313 40.6668 15.9738 40.5264 15.7238 40.2763C15.4737 40.0263 15.3333 39.6871 15.3333 39.3335V20.6668C15.3333 20.3132 15.4737 19.9741 15.7238 19.724C15.9738 19.474 16.313 19.3335 16.6666 19.3335H35.3332ZM23.8666 25.7722C23.7436 25.7721 23.6245 25.8146 23.5292 25.8923C23.434 25.9701 23.3685 26.0784 23.3439 26.1988L23.3333 26.3042V33.6935C23.3332 33.7799 23.3542 33.8649 23.3943 33.9414C23.4345 34.0179 23.4926 34.0835 23.5637 34.1325C23.6348 34.1816 23.7167 34.2126 23.8024 34.223C23.8882 34.2334 23.9752 34.2228 24.0559 34.1922L24.1533 34.1442L29.9599 30.4482C30.0277 30.4048 30.0847 30.3467 30.1269 30.2782C30.169 30.2097 30.1951 30.1325 30.2031 30.0525C30.2112 29.9725 30.2011 29.8916 30.1735 29.8161C30.1459 29.7405 30.1016 29.6722 30.0439 29.6162L29.9599 29.5495L24.1533 25.8535C24.0672 25.8002 23.9678 25.7724 23.8666 25.7735V25.7722Z" fill="white"/>
</svg>
