<svg width="117" height="175" viewBox="0 0 117 175" fill="none" xmlns="http://www.w3.org/2000/svg">
<g clip-path="url(#clip0_643:2099)">
<path d="M116.67 0C116.67 22.5 103.67 43 83.3366 52.6667L83.3366 175H66.6699L66.6699 116.667H50.0032L50.0032 175H33.3366L33.3366 52.5833C13.0029 43 0.00292901 22.5 0.00292901 0L16.6699 0C16.6699 11.0507 21.0598 21.6488 28.8738 29.4628C32.7429 33.3319 37.3362 36.401 42.3914 38.495C47.4467 40.5889 52.8648 41.6667 58.3366 41.6667C69.3873 41.6667 79.9853 37.2768 87.7993 29.4628C95.6134 21.6488 100.003 11.0507 100.003 0L116.67 0ZM58.3366 0C67.5866 0 75.0032 7.41667 75.0032 16.6667C75.0032 25.9167 67.5866 33.3333 58.3366 33.3333C49.0866 33.3333 41.6699 25.9167 41.6699 16.6667C41.6699 7.41667 49.0866 0 58.3366 0Z" fill="#FF5354"/>
</g>
<defs>
<clipPath id="clip0_643:2099">
<rect width="33" height="53" fill="white" transform="matrix(-1 0 0 1 116.67 0)"/>
</clipPath>
</defs>
</svg>
