<svg width="117" height="175" viewBox="0 0 117 175" fill="none" xmlns="http://www.w3.org/2000/svg">
<g clip-path="url(#clip0_643:2099)">
<path d="M0 0C0 22.5 13 43 33.3333 52.6667V175H50V116.667H66.6667V175H83.3333V52.5833C103.667 43 116.667 22.5 116.667 0H100C100 11.0507 95.6101 21.6488 87.7961 29.4628C83.927 33.3319 79.3337 36.401 74.2785 38.495C69.2232 40.5889 63.8051 41.6667 58.3333 41.6667C47.2826 41.6667 36.6846 37.2768 28.8706 29.4628C21.0565 21.6488 16.6667 11.0507 16.6667 0H0ZM58.3333 0C49.0833 0 41.6667 7.41667 41.6667 16.6667C41.6667 25.9167 49.0833 33.3333 58.3333 33.3333C67.5833 33.3333 75 25.9167 75 16.6667C75 7.41667 67.5833 0 58.3333 0Z" fill="#FF5354"/>
</g>
<defs>
<clipPath id="clip0_643:2099">
<rect width="33" height="53" fill="white" transform="translate(84)"/>
</clipPath>
</defs>
</svg>
