<svg width="117" height="175" viewBox="0 0 117 175" fill="none" xmlns="http://www.w3.org/2000/svg">
<g clip-path="url(#clip0_643:2103)">
<path d="M33.1316 -0.48291C33.1316 22.0789 46.2 42.6352 66.6404 52.3284V174.997H83.3948V116.504H100.149V174.997H116.903V52.2448C137.344 42.6352 150.412 22.0789 150.412 -0.48291H133.658C133.658 10.5981 129.245 21.2254 121.39 29.0609C117.5 32.9406 112.883 36.0181 107.801 38.1178C102.719 40.2175 97.2725 41.2982 91.7719 41.2982C80.663 41.2982 70.0092 36.8963 62.1541 29.0609C54.2989 21.2254 49.886 10.5981 49.886 -0.48291H33.1316ZM91.7719 -0.48291C82.4732 -0.48291 75.0176 6.95409 75.0176 16.2301C75.0176 25.505 82.4732 32.942 91.7719 32.942C101.071 32.942 108.526 25.505 108.526 16.2301C108.526 6.95409 101.071 -0.48291 91.7719 -0.48291Z" fill="#FF5354"/>
</g>
<defs>
<clipPath id="clip0_643:2103">
<rect width="18" height="58" fill="white" transform="translate(66 117)"/>
</clipPath>
</defs>
</svg>
