<svg width="117" height="176" viewBox="0 0 117 176" fill="none" xmlns="http://www.w3.org/2000/svg">
<g clip-path="url(#clip0_643:2103)">
<path d="M33.1316 -1.49146C33.1316 21.1992 46.2 41.873 66.6404 51.6216V174.992H83.3948V116.164H100.149V174.992H116.903V51.5375C137.344 41.873 150.412 21.1992 150.412 -1.49146H133.658C133.658 9.6532 129.245 20.3408 121.39 28.221C117.5 32.1229 112.883 35.218 107.801 37.3298C102.719 39.4414 97.2725 40.5284 91.7719 40.5284C80.663 40.5284 70.0092 36.1012 62.1541 28.221C54.2989 20.3408 49.886 9.6532 49.886 -1.49146H33.1316ZM91.7719 -1.49146C82.4732 -1.49146 75.0176 5.9884 75.0176 15.3168C75.0176 24.6449 82.4732 32.1243 91.7719 32.1243C101.071 32.1243 108.526 24.6449 108.526 15.3168C108.526 5.9884 101.071 -1.49146 91.7719 -1.49146Z" fill="#FF5354"/>
</g>
<defs>
<clipPath id="clip0_643:2103">
<rect width="19.1" height="59.5" fill="white" transform="translate(65.3 116.5)"/>
</clipPath>
</defs>
</svg>
