<svg width="60" height="60" viewBox="0 0 60 60" fill="none" xmlns="http://www.w3.org/2000/svg">
<circle cx="30" cy="30" r="30" fill="#882BFF"/>
<path d="M16.6667 19.324C16.6692 18.9738 16.8093 18.6387 17.0568 18.391C17.3042 18.1432 17.6393 18.0028 17.9894 18H42.0107C42.7414 18 43.3334 18.5933 43.3334 19.324V40.676C43.331 41.0262 43.1909 41.3613 42.9434 41.609C42.6959 41.8568 42.3609 41.9972 42.0107 42H17.9894C17.6385 41.9996 17.3021 41.86 17.0541 41.6117C16.8061 41.3635 16.6667 41.0269 16.6667 40.676V19.324ZM30.0001 34C28.9392 34 27.9218 33.5786 27.1717 32.8284C26.4215 32.0783 26.0001 31.0609 26.0001 30C26.0001 28.9391 26.4215 27.9217 27.1717 27.1716C27.9218 26.4214 28.9392 26 30.0001 26C31.0609 26 32.0784 26.4214 32.8285 27.1716C33.5787 27.9217 34.0001 28.9391 34.0001 30C34.0001 31.0609 33.5787 32.0783 32.8285 32.8284C32.0784 33.5786 31.0609 34 30.0001 34ZM30.0001 36.6667C31.7682 36.6667 33.4639 35.9643 34.7141 34.714C35.9644 33.4638 36.6667 31.7681 36.6667 30C36.6667 28.2319 35.9644 26.5362 34.7141 25.286C33.4639 24.0357 31.7682 23.3333 30.0001 23.3333C28.232 23.3333 26.5363 24.0357 25.286 25.286C24.0358 26.5362 23.3334 28.2319 23.3334 30C23.3334 31.7681 24.0358 33.4638 25.286 34.714C26.5363 35.9643 28.232 36.6667 30.0001 36.6667ZM38.0001 20.6667V23.3333H40.6668V20.6667H38.0001Z" fill="white"/>
</svg>
